SplineFontDB: 3.2
FontName: Corpus.Medium
FullName: Corpus.Medium
FamilyName: Corpus
Weight: Medium
Copyright: (c) RISC OS Developments Ltd, released under Apache License 2.0
Version: 1
ItalicAngle: 0
UnderlinePosition: 0
UnderlineWidth: 0
Ascent: 314
Descent: 79
InvalidEm: 0
LayerCount: 2
Layer: 0 0 "Back" 1
Layer: 1 0 "Fore" 0
OS2Version: 0
OS2_WeightWidthSlopeOnly: 0
OS2_UseTypoMetrics: 0
CreationTime: 1622737881
ModificationTime: 1622737881
OS2TypoAscent: 0
OS2TypoAOffset: 1
OS2TypoDescent: 0
OS2TypoDOffset: 1
OS2TypoLinegap: 0
OS2WinAscent: 0
OS2WinAOffset: 1
OS2WinDescent: 0
OS2WinDOffset: 1
HheadAscent: 0
HheadAOffset: 1
HheadDescent: 0
HheadDOffset: 1
OS2Vendor: 'PfEd'
DEI: 91125
Encoding: Custom
UnicodeInterp: none
NameList: AGL For New Fonts
DisplaySize: -24
AntiAlias: 1
FitToEm: 0
BeginChars: 480 407

StartChar: exclam
Encoding: 33 33 32
Width: 235
VWidth: 0
Flags: HMW
LayerCount: 2
Fore
SplineSet
143 -1 m 0
 133 -11 107 -11 97 -1 c 0
 87 9 87 20 97 30 c 0
 107 40 133 40 143 30 c 0
 153 20 153 9 143 -1 c 0
136 216 m 0
 133 89 l 0
 133 69 107 69 107 89 c 0
 104 216 l 0
 104 235 136 235 136 216 c 0
EndSplineSet
EndChar

StartChar: quoteleft
Encoding: 34 8216 33
Width: 235
VWidth: 0
Flags: HMW
LayerCount: 2
Fore
SplineSet
123 135 m 0
 119 121 93 127 98 141 c 0
 130 236 l 0
 134 248 154 244 150 230 c 0
 123 135 l 0
EndSplineSet
EndChar

StartChar: quoteright
Encoding: 35 8217 34
Width: 235
VWidth: 0
Flags: HMW
LayerCount: 2
Fore
SplineSet
125 236 m 0
 129 250 155 244 150 230 c 0
 118 135 l 0
 114 123 94 127 98 141 c 0
 125 236 l 0
EndSplineSet
EndChar

StartChar: quotedblleft
Encoding: 36 8220 35
Width: 235
VWidth: 0
Flags: HMW
LayerCount: 2
Fore
SplineSet
181 230 m 0
 154 135 l 0
 150 121 124 127 129 141 c 0
 161 236 l 0
 165 248 185 244 181 230 c 0
120 230 m 0
 93 135 l 0
 89 121 63 127 68 141 c 0
 100 236 l 0
 104 248 124 244 120 230 c 0
EndSplineSet
EndChar

StartChar: quotedblright
Encoding: 37 8221 36
Width: 235
VWidth: 0
Flags: HMW
LayerCount: 2
Fore
SplineSet
68 141 m 0
 95 236 l 0
 99 250 125 244 120 230 c 0
 88 135 l 0
 84 123 64 127 68 141 c 0
129 141 m 0
 156 236 l 0
 160 250 186 244 181 230 c 0
 149 135 l 0
 145 123 125 127 129 141 c 0
EndSplineSet
EndChar

StartChar: asciitilde
Encoding: 39 126 38
Width: 235
VWidth: 0
Flags: HMW
LayerCount: 2
Fore
SplineSet
17 84 m 0
 52 145 79 133 124 114 c 0
 165 96 177 93 203 134 c 0
 210 144 225 132 217 118 c 0
 193 70 164 66 118 88 c 0
 77 110 59 113 31 68 c 0
 23 56 9 72 17 84 c 0
EndSplineSet
EndChar

StartChar: parenleft
Encoding: 40 40 39
Width: 235
VWidth: 0
Flags: HMW
LayerCount: 2
Fore
SplineSet
153 -51 m 0
 163 -69 143 -79 132 -67 c 0
 72 13 72 141 134 222 c 0
 145 234 165 224 155 206 c 0
 104 141 104 13 153 -51 c 0
EndSplineSet
EndChar

StartChar: parenright
Encoding: 41 41 40
Width: 235
VWidth: 0
Flags: HMW
LayerCount: 2
Fore
SplineSet
79 206 m 0
 69 224 89 234 100 222 c 0
 162 141 162 13 102 -67 c 0
 91 -79 71 -69 81 -51 c 0
 130 13 130 141 79 206 c 0
EndSplineSet
EndChar

StartChar: asterisk
Encoding: 42 42 41
Width: 235
VWidth: 0
Flags: HMW
LayerCount: 2
Fore
SplineSet
119 133 m 0
 91 88 l 0
 82 74 60 87 70 99 c 0
 102 143 l 0
 47 161 l 0
 31 167 41 190 56 184 c 0
 111 161 l 0
 108 221 l 0
 108 237 133 237 132 221 c 0
 129 161 l 0
 182 184 l 0
 195 190 204 167 190 162 c 0
 135 144 l 0
 170 102 l 0
 180 90 161 73 151 87 c 0
 119 133 l 0
EndSplineSet
EndChar

StartChar: sterling
Encoding: 43 163 42
Width: 235
VWidth: 0
Flags: HMW
LayerCount: 2
Fore
SplineSet
96 22 m 0
 189 22 l 0
 204 22 204 0 189 0 c 0
 40 0 l 0
 25 0 25 22 40 22 c 0
 72 22 l 0
 72 100 l 0
 55 100 l 0
 37 100 37 122 55 122 c 0
 72 122 l 0
 72 164 l 0
 72 183 83 198 97 212 c 0
 117 232 161 233 182 212 c 0
 195 199 198 183 200 176 c 0
 202 158 179 158 176 170 c 0
 174 176 173 185 163 195 c 0
 152 206 125 206 110 191 c 0
 104 185 96 168 96 164 c 0
 96 122 l 0
 120 122 l 0
 138 122 138 100 120 100 c 0
 96 100 l 0
 96 22 l 0
EndSplineSet
EndChar

StartChar: comma
Encoding: 44 44 43
Width: 235
VWidth: 0
Flags: HMW
LayerCount: 2
Fore
SplineSet
96 -62 m 0
 91 -73 64 -64 71 -44 c 0
 101 34 l 0
 103 41 109 40 122 40 c 0
 132 40 148 41 139 25 c 0
 96 -62 l 0
EndSplineSet
EndChar

StartChar: hyphen
Encoding: 45 45 44
Width: 235
VWidth: 0
Flags: HMW
LayerCount: 2
Fore
SplineSet
148 106 m 0
 163 106 163 75 148 75 c 0
 89 75 l 0
 74 75 74 106 89 106 c 0
 148 106 l 0
EndSplineSet
EndChar

StartChar: period
Encoding: 46 46 45
Width: 235
VWidth: 0
Flags: HMW
LayerCount: 2
Fore
SplineSet
98 -3 m 0
 85 10 85 24 98 37 c 0
 107 46 129 46 138 37 c 0
 151 24 151 10 138 -3 c 0
 129 -12 107 -12 98 -3 c 0
EndSplineSet
EndChar

StartChar: zero
Encoding: 48 48 47
Width: 235
VWidth: 0
Flags: HMW
LayerCount: 2
Fore
SplineSet
166 222 m 0
 206 182 206 54 166 14 c 0
 139 -13 99 -13 72 14 c 0
 32 54 32 182 72 222 c 0
 99 249 139 249 166 222 c 0
146 211 m 0
 131 226 107 226 92 211 c 0
 60 179 60 57 92 25 c 0
 107 10 131 10 146 25 c 0
 178 57 178 179 146 211 c 0
EndSplineSet
EndChar

StartChar: one
Encoding: 49 49 48
Width: 235
VWidth: 0
Flags: HMW
LayerCount: 2
Fore
SplineSet
71 214 m 0
 56 214 56 236 71 236 c 0
 124 236 l 0
 130 236 132 233 132 227 c 0
 132 22 l 0
 183 22 l 0
 198 22 198 0 183 0 c 0
 56 0 l 0
 41 0 41 22 56 22 c 0
 108 22 l 0
 108 214 l 0
 71 214 l 0
EndSplineSet
EndChar

StartChar: two
Encoding: 50 50 49
Width: 235
VWidth: 0
Flags: HMW
LayerCount: 2
Fore
SplineSet
167 219 m 0
 192 194 192 149 159 113 c 0
 71 22 l 0
 157 22 l 0
 169 22 166 32 166 36 c 0
 166 52 190 52 190 36 c 0
 190 24 191 0 178 0 c 0
 51 0 l 0
 36 0 32 11 43 22 c 0
 110 92 l 0
 166 149 166 187 145 208 c 0
 104 249 66 192 60 185 c 0
 52 177 36 190 43 200 c 0
 81 253 134 253 167 219 c 0
EndSplineSet
EndChar

StartChar: three
Encoding: 51 51 50
Width: 235
VWidth: 0
Flags: HMW
LayerCount: 2
Fore
SplineSet
106 115 m 0
 91 115 91 137 106 137 c 0
 154 137 167 184 141 210 c 0
 126 225 93 225 65 197 c 0
 54 187 39 202 49 213 c 0
 86 250 134 250 163 221 c 0
 194 190 181 152 151 129 c 0
 159 126 170 119 178 111 c 0
 202 87 202 43 171 12 c 0
 146 -13 78 -13 45 17 c 0
 34 27 49 43 60 33 c 0
 86 11 132 11 154 33 c 0
 175 54 174 84 157 101 c 0
 143 115 124 119 106 115 c 0
EndSplineSet
EndChar

StartChar: four
Encoding: 52 52 51
Width: 235
VWidth: 0
Flags: HMW
LayerCount: 2
Fore
SplineSet
134 232 m 0
 154 267 171 245 171 240 c 0
 171 81 l 0
 186 81 l 0
 201 81 201 59 186 59 c 0
 171 59 l 0
 171 22 l 0
 181 22 l 0
 196 22 196 0 181 0 c 0
 126 0 l 0
 111 0 111 22 126 22 c 0
 147 22 l 0
 147 59 l 0
 53 59 l 0
 44 59 36 65 45 81 c 0
 134 232 l 0
69 81 m 0
 147 81 l 0
 147 215 l 0
 69 81 l 0
EndSplineSet
EndChar

StartChar: five
Encoding: 53 53 52
Width: 235
VWidth: 0
Flags: HMW
LayerCount: 2
Fore
SplineSet
157 37 m 0
 177 57 177 90 158 109 c 0
 131 136 96 129 76 117 c 0
 66 112 55 116 59 132 c 0
 61 226 l 0
 61 232 67 236 72 236 c 0
 177 236 l 0
 192 236 192 214 177 214 c 0
 80 214 l 0
 78 138 l 0
 115 154 147 154 174 127 c 0
 203 98 203 48 172 17 c 0
 142 -13 77 -13 46 13 c 0
 33 24 45 41 59 33 c 0
 100 10 133 13 157 37 c 0
EndSplineSet
EndChar

StartChar: six
Encoding: 54 54 53
Width: 235
VWidth: 0
Flags: HMW
LayerCount: 2
Fore
SplineSet
160 30 m 0
 175 45 175 93 159 109 c 0
 139 129 111 129 91 109 c 0
 68 86 68 50 88 30 c 0
 112 6 136 6 160 30 c 0
96 194 m 0
 76 174 65 140 67 104 c 0
 102 152 148 152 176 124 c 0
 202 98 202 41 176 15 c 0
 148 -13 99 -13 71 15 c 0
 29 57 29 161 80 212 c 0
 110 242 157 248 179 238 c 0
 191 232 186 212 172 217 c 0
 146 227 120 218 96 194 c 0
EndSplineSet
EndChar

StartChar: seven
Encoding: 55 55 54
Width: 235
VWidth: 0
Flags: HMW
LayerCount: 2
Fore
SplineSet
92 15 m 0
 172 214 l 0
 68 214 l 0
 67 202 l 0
 66 187 43 187 43 202 c 0
 43 226 l 0
 43 232 50 236 56 236 c 0
 181 236 l 0
 189 236 198 230 195 222 c 0
 119 3 l 0
 113 -14 83 -6 92 15 c 0
EndSplineSet
EndChar

StartChar: eight
Encoding: 56 56 55
Width: 235
VWidth: 0
Flags: HMW
LayerCount: 2
Fore
SplineSet
154 104 m 0
 134 124 103 124 82 103 c 0
 65 86 65 46 81 30 c 0
 104 7 133 7 156 30 c 0
 174 48 174 84 154 104 c 0
86 127 m 0
 48 142 36 192 65 221 c 0
 93 249 147 249 175 221 c 0
 204 192 183 141 150 129 c 0
 198 108 211 53 173 15 c 0
 145 -13 89 -13 61 15 c 0
 22 54 44 112 86 127 c 0
82 153 m 0
 102 133 133 133 153 153 c 0
 167 167 167 195 157 205 c 0
 133 229 104 229 80 205 c 0
 69 193 69 166 82 153 c 0
EndSplineSet
EndChar

StartChar: nine
Encoding: 57 57 56
Width: 235
VWidth: 0
Flags: HMW
LayerCount: 2
Fore
SplineSet
77 126 m 0
 97 106 125 106 145 126 c 0
 168 149 168 186 148 206 c 0
 124 230 100 230 76 206 c 0
 61 191 61 142 77 126 c 0
169 131 m 0
 134 83 88 83 60 111 c 0
 34 137 34 195 60 221 c 0
 88 249 137 249 165 221 c 0
 207 179 207 75 156 24 c 0
 126 -6 78 -12 56 -2 c 0
 44 4 49 24 63 19 c 0
 89 9 116 18 140 42 c 0
 160 62 171 95 169 131 c 0
EndSplineSet
EndChar

StartChar: colon
Encoding: 58 58 57
Width: 235
VWidth: 0
Flags: HMW
LayerCount: 2
Fore
SplineSet
98 37 m 0
 107 46 129 46 138 37 c 0
 151 24 151 10 138 -3 c 0
 129 -12 107 -12 98 -3 c 0
 85 10 85 24 98 37 c 0
98 94 m 0
 85 107 85 121 98 134 c 0
 107 143 129 143 138 134 c 0
 151 121 151 107 138 94 c 0
 129 85 107 85 98 94 c 0
EndSplineSet
EndChar

StartChar: semicolon
Encoding: 59 59 58
Width: 235
VWidth: 0
Flags: HMW
LayerCount: 2
Fore
SplineSet
142 134 m 0
 155 121 155 107 142 94 c 0
 133 85 111 85 102 94 c 0
 89 107 89 121 102 134 c 0
 111 143 133 143 142 134 c 0
139 25 m 0
 96 -62 l 0
 91 -73 64 -64 71 -44 c 0
 101 34 l 0
 103 41 109 40 122 40 c 0
 132 40 148 41 139 25 c 0
EndSplineSet
EndChar

StartChar: quotesingle
Encoding: 60 39 59
Width: 235
VWidth: 0
Flags: HMW
LayerCount: 2
Fore
SplineSet
118 135 m 0
 114 123 94 127 98 141 c 0
 125 236 l 0
 129 250 155 244 150 230 c 0
 118 135 l 0
EndSplineSet
EndChar

StartChar: equal
Encoding: 61 61 60
Width: 235
VWidth: 0
Flags: HMW
LayerCount: 2
Fore
SplineSet
184 70 m 0
 199 70 199 48 184 48 c 0
 52 48 l 0
 37 48 37 70 52 70 c 0
 184 70 l 0
184 113 m 0
 52 113 l 0
 37 113 37 135 52 135 c 0
 184 135 l 0
 199 135 199 113 184 113 c 0
EndSplineSet
EndChar

StartChar: quotedbl
Encoding: 62 34 61
Width: 235
VWidth: 0
Flags: HMW
LayerCount: 2
Fore
SplineSet
166 125 m 0
 165 117 143 117 142 125 c 0
 136 219 l 0
 135 229 173 229 172 219 c 0
 166 125 l 0
71 219 m 0
 70 229 108 229 107 219 c 0
 101 125 l 0
 100 117 78 117 77 125 c 0
 71 219 l 0
EndSplineSet
EndChar

StartChar: question
Encoding: 63 63 62
Width: 235
VWidth: 0
Flags: HMW
LayerCount: 2
Fore
SplineSet
143 -1 m 0
 133 -11 107 -11 97 -1 c 0
 87 9 87 20 97 30 c 0
 107 40 133 40 143 30 c 0
 153 20 153 9 143 -1 c 0
189 121 m 0
 171 103 147 95 132 91 c 0
 132 75 l 0
 132 59 108 59 108 75 c 0
 108 102 l 0
 108 108 115 112 121 112 c 0
 136 113 150 117 164 131 c 0
 184 151 184 173 165 192 c 0
 148 209 104 209 80 187 c 0
 80 178 l 0
 80 162 56 162 56 178 c 0
 56 205 l 0
 70 228 155 237 189 203 c 0
 211 181 211 143 189 121 c 0
EndSplineSet
EndChar

StartChar: acute
Encoding: 64 180 63
Width: 235
VWidth: 0
Flags: HMW
LayerCount: 2
Fore
SplineSet
98 215 m 0
 120 237 l 0
 140 257 160 234 143 222 c 0
 117 205 l 0
 96 190 86 203 98 215 c 0
EndSplineSet
EndChar

StartChar: A
Encoding: 65 65 64
Width: 235
VWidth: 0
Flags: HMW
LayerCount: 2
Fore
SplineSet
48 22 m 0
 79 22 l 0
 94 22 94 0 79 0 c 0
 14 0 l 0
 -1 0 -1 22 14 22 c 0
 25 22 l 0
 100 201 l 0
 50 201 l 0
 35 201 35 223 50 223 c 0
 114 223 l 0
 127 223 133 215 137 205 c 0
 207 22 l 0
 219 22 l 0
 234 22 234 0 219 0 c 0
 153 0 l 0
 138 0 138 22 153 22 c 0
 180 22 l 0
 162 69 l 0
 67 69 l 0
 48 22 l 0
116 194 m 0
 75 89 l 0
 155 89 l 0
 116 194 l 0
EndSplineSet
EndChar

StartChar: B
Encoding: 66 66 65
Width: 235
VWidth: 0
Flags: HMW
LayerCount: 2
Fore
SplineSet
132 201 m 0
 78 201 l 0
 78 123 l 0
 128 123 l 0
 190 123 192 201 132 201 c 0
144 0 m 0
 34 0 l 0
 19 0 19 22 34 22 c 0
 54 22 l 0
 54 201 l 0
 34 201 l 0
 19 201 19 223 34 223 c 0
 142 223 l 0
 207 223 223 154 176 120 c 0
 238 98 232 0 144 0 c 0
128 105 m 0
 78 105 l 0
 78 22 l 0
 147 22 l 0
 195 22 223 105 128 105 c 0
EndSplineSet
EndChar

StartChar: C
Encoding: 67 67 66
Width: 235
VWidth: 0
Flags: HMW
LayerCount: 2
Fore
SplineSet
185 211 m 0
 185 218 l 0
 185 233 205 233 205 218 c 0
 205 152 l 0
 205 137 185 137 185 152 c 0
 185 220 109 220 67 179 c 0
 33 144 34 78 72 40 c 0
 105 7 154 7 201 54 c 0
 209 62 225 50 214 40 c 0
 155 -20 92 -18 53 21 c 0
 8 66 7 154 50 197 c 0
 91 238 155 237 185 211 c 0
EndSplineSet
EndChar

StartChar: D
Encoding: 68 68 67
Width: 235
VWidth: 0
Flags: HMW
LayerCount: 2
Fore
SplineSet
25 223 m 0
 119 223 l 0
 248 223 246 0 118 0 c 0
 25 0 l 0
 10 0 10 22 25 22 c 0
 41 22 l 0
 41 201 l 0
 25 201 l 0
 10 201 10 223 25 223 c 0
116 22 m 0
 214 22 214 201 112 201 c 0
 65 201 l 0
 65 22 l 0
 116 22 l 0
EndSplineSet
EndChar

StartChar: E
Encoding: 69 69 68
Width: 235
VWidth: 0
Flags: HMW
LayerCount: 2
Fore
SplineSet
207 66 m 0
 207 14 l 0
 207 6 201 0 193 0 c 0
 30 0 l 0
 15 0 15 22 30 22 c 0
 54 22 l 0
 54 201 l 0
 30 201 l 0
 15 201 15 223 30 223 c 0
 195 223 l 0
 201 223 207 219 207 209 c 0
 207 159 l 0
 207 143 183 143 183 159 c 0
 183 201 l 0
 78 201 l 0
 78 131 l 0
 136 131 l 0
 136 147 l 0
 136 162 156 162 156 147 c 0
 156 91 l 0
 156 76 136 76 136 91 c 0
 136 109 l 0
 78 109 l 0
 78 22 l 0
 183 22 l 0
 183 66 l 0
 183 82 207 82 207 66 c 0
EndSplineSet
EndChar

StartChar: F
Encoding: 70 70 69
Width: 235
VWidth: 0
Flags: HMW
LayerCount: 2
Fore
SplineSet
207 150 m 0
 207 134 183 134 183 150 c 0
 183 201 l 0
 78 201 l 0
 78 131 l 0
 136 131 l 0
 136 147 l 0
 136 162 156 162 156 147 c 0
 156 91 l 0
 156 76 136 76 136 91 c 0
 136 109 l 0
 78 109 l 0
 78 22 l 0
 120 22 l 0
 135 22 135 0 120 0 c 0
 30 0 l 0
 15 0 15 22 30 22 c 0
 54 22 l 0
 54 201 l 0
 30 201 l 0
 15 201 15 223 30 223 c 0
 195 223 l 0
 201 223 207 219 207 209 c 0
 207 150 l 0
EndSplineSet
EndChar

StartChar: G
Encoding: 71 71 70
Width: 235
VWidth: 0
Flags: HMW
LayerCount: 2
Fore
SplineSet
172 218 m 0
 185 205 185 210 185 218 c 0
 185 230 205 230 205 218 c 0
 205 160 l 0
 205 148 185 148 185 160 c 0
 185 166 181 180 171 190 c 0
 144 217 99 217 67 185 c 0
 33 151 33 75 69 39 c 0
 103 5 154 18 179 25 c 0
 179 80 l 0
 128 80 l 0
 113 80 113 102 128 102 c 0
 208 102 l 0
 223 102 223 80 208 80 c 0
 203 80 l 0
 203 16 l 0
 161 -15 88 -16 49 23 c 0
 6 66 6 156 55 205 c 0
 84 234 156 234 172 218 c 0
EndSplineSet
EndChar

StartChar: H
Encoding: 72 72 71
Width: 235
VWidth: 0
Flags: HMW
LayerCount: 2
Fore
SplineSet
156 22 m 0
 170 22 l 0
 170 109 l 0
 78 109 l 0
 78 22 l 0
 91 22 l 0
 106 22 106 0 91 0 c 0
 40 0 l 0
 25 0 25 22 40 22 c 0
 54 22 l 0
 54 201 l 0
 40 201 l 0
 25 201 25 223 40 223 c 0
 91 223 l 0
 106 223 106 201 91 201 c 0
 78 201 l 0
 78 127 l 0
 170 127 l 0
 170 201 l 0
 156 201 l 0
 141 201 141 223 156 223 c 0
 207 223 l 0
 222 223 222 201 207 201 c 0
 194 201 l 0
 194 22 l 0
 207 22 l 0
 222 22 222 0 207 0 c 0
 156 0 l 0
 141 0 141 22 156 22 c 0
EndSplineSet
EndChar

StartChar: I
Encoding: 73 73 72
Width: 235
VWidth: 0
Flags: HMW
LayerCount: 2
Fore
SplineSet
108 201 m 0
 47 201 l 0
 32 201 32 223 47 223 c 0
 189 223 l 0
 204 223 204 201 189 201 c 0
 132 201 l 0
 132 22 l 0
 189 22 l 0
 204 22 204 0 189 0 c 0
 47 0 l 0
 32 0 32 22 47 22 c 0
 108 22 l 0
 108 201 l 0
EndSplineSet
EndChar

StartChar: J
Encoding: 74 74 73
Width: 235
VWidth: 0
Flags: HMW
LayerCount: 2
Fore
SplineSet
146 201 m 0
 85 201 l 0
 70 201 70 223 85 223 c 0
 210 223 l 0
 225 223 225 201 210 201 c 0
 170 201 l 0
 170 74 l 0
 170 -34 47 -17 20 25 c 0
 20 86 l 0
 20 102 41 102 41 86 c 0
 41 67 l 0
 41 2 146 -7 146 72 c 0
 146 201 l 0
EndSplineSet
EndChar

StartChar: K
Encoding: 75 75 74
Width: 235
VWidth: 0
Flags: HMW
LayerCount: 2
Fore
SplineSet
165 201 m 0
 151 201 l 0
 136 201 136 223 151 223 c 0
 213 223 l 0
 228 223 228 201 213 201 c 0
 200 201 l 0
 182 185 148 152 121 126 c 0
 170 108 182 42 203 22 c 0
 216 22 l 0
 231 22 231 0 216 0 c 0
 189 0 l 0
 178 10 169 22 164 36 c 0
 154 66 106 155 80 75 c 0
 80 22 l 0
 106 22 l 0
 121 22 121 0 106 0 c 0
 30 0 l 0
 15 0 15 22 30 22 c 0
 56 22 l 0
 56 201 l 0
 30 201 l 0
 15 201 15 223 30 223 c 0
 106 223 l 0
 121 223 121 201 106 201 c 0
 80 201 l 0
 80 111 l 0
 110 140 161 187 165 201 c 0
EndSplineSet
EndChar

StartChar: L
Encoding: 76 76 75
Width: 235
VWidth: 0
Flags: HMW
LayerCount: 2
Fore
SplineSet
122 201 m 0
 78 201 l 0
 78 22 l 0
 183 22 l 0
 183 89 l 0
 183 105 207 105 207 89 c 0
 207 14 l 0
 207 6 201 0 193 0 c 0
 19 0 l 0
 4 0 4 22 19 22 c 0
 54 22 l 0
 54 201 l 0
 19 201 l 0
 4 201 4 223 19 223 c 0
 122 223 l 0
 137 223 137 201 122 201 c 0
EndSplineSet
EndChar

StartChar: M
Encoding: 77 77 76
Width: 235
VWidth: 0
Flags: HMW
LayerCount: 2
Fore
SplineSet
132 63 m 0
 127 49 113 49 108 63 c 0
 58 200 l 0
 54 22 l 0
 75 22 l 0
 90 22 90 0 75 0 c 0
 20 0 l 0
 5 0 5 22 20 22 c 0
 34 22 l 0
 40 201 l 0
 32 201 l 0
 17 201 17 223 32 223 c 0
 66 223 l 0
 73 223 76 218 78 214 c 0
 123 87 l 0
 166 214 l 0
 168 218 171 223 178 223 c 0
 217 223 l 0
 232 223 232 201 217 201 c 0
 204 201 l 0
 210 22 l 0
 229 22 l 0
 244 22 244 0 229 0 c 0
 172 0 l 0
 157 0 157 22 172 22 c 0
 186 22 l 0
 180 201 l 0
 132 63 l 0
EndSplineSet
EndChar

StartChar: N
Encoding: 78 78 77
Width: 235
VWidth: 0
Flags: HMW
LayerCount: 2
Fore
SplineSet
177 7 m 0
 63 186 l 0
 63 22 l 0
 101 22 l 0
 116 22 116 0 101 0 c 0
 28 0 l 0
 13 0 13 22 28 22 c 0
 43 22 l 0
 43 201 l 0
 28 201 l 0
 13 201 13 223 28 223 c 0
 63 223 l 0
 65 222 67 222 69 220 c 0
 70 219 71 216 72 214 c 0
 187 38 l 0
 187 201 l 0
 152 201 l 0
 137 201 137 223 152 223 c 0
 215 223 l 0
 230 223 230 201 215 201 c 0
 207 201 l 0
 207 7 l 0
 207 -9 188 -10 177 7 c 0
EndSplineSet
EndChar

StartChar: O
Encoding: 79 79 78
Width: 235
VWidth: 0
Flags: HMW
LayerCount: 2
Fore
SplineSet
187 199 m 0
 229 158 229 66 187 23 c 0
 148 -17 88 -17 49 23 c 0
 7 66 7 158 49 199 c 0
 88 239 148 239 187 199 c 0
164 33 m 0
 201 70 201 152 164 189 c 0
 138 215 98 215 72 189 c 0
 35 152 35 70 72 33 c 0
 98 7 138 7 164 33 c 0
EndSplineSet
EndChar

StartChar: P
Encoding: 80 80 79
Width: 235
VWidth: 0
Flags: HMW
LayerCount: 2
Fore
SplineSet
78 86 m 0
 78 22 l 0
 131 22 l 0
 146 22 146 0 131 0 c 0
 21 0 l 0
 6 0 6 22 21 22 c 0
 54 22 l 0
 54 201 l 0
 21 201 l 0
 6 201 6 223 21 223 c 0
 129 223 l 0
 231 223 231 86 121 86 c 0
 78 86 l 0
117 106 m 0
 194 106 196 201 125 201 c 0
 78 201 l 0
 78 106 l 0
 117 106 l 0
EndSplineSet
EndChar

StartChar: Q
Encoding: 81 81 80
Width: 235
VWidth: 0
Flags: HMW
LayerCount: 2
Fore
SplineSet
105 -21 m 0
 118 -8 l 0
 105 -21 l 0
164 33 m 0
 201 70 201 152 164 189 c 0
 138 215 98 215 72 189 c 0
 35 152 35 70 72 33 c 0
 98 7 138 7 164 33 c 0
105 -21 m 0
 126 -28 158 -37 175 -28 c 0
 210 -8 218 -25 199 -47 c 0
 169 -83 114 -19 87 -43 c 0
 54 -70 27 -39 94 -5 c 0
 87 -4 66 5 49 23 c 0
 7 66 7 158 49 199 c 0
 88 239 148 239 187 199 c 0
 229 158 229 66 187 23 c 0
 167 3 133 -11 118 -8 c 0
 105 -21 l 0
EndSplineSet
EndChar

StartChar: R
Encoding: 82 82 81
Width: 235
VWidth: 0
Flags: HMW
LayerCount: 2
Fore
SplineSet
128 116 m 0
 186 116 192 201 127 201 c 0
 78 201 l 0
 78 116 l 0
 128 116 l 0
113 22 m 0
 128 22 128 0 113 0 c 0
 34 0 l 0
 19 0 19 22 34 22 c 0
 54 22 l 0
 54 201 l 0
 34 201 l 0
 19 201 19 223 34 223 c 0
 139 223 l 0
 204 223 236 118 143 101 c 0
 170 75 189 47 203 22 c 0
 218 22 l 0
 233 22 233 0 218 0 c 0
 191 0 l 0
 178 -11 147 113 78 98 c 0
 78 22 l 0
 113 22 l 0
EndSplineSet
EndChar

StartChar: S
Encoding: 83 83 82
Width: 235
VWidth: 0
Flags: HMW
LayerCount: 2
Fore
SplineSet
53 9 m 0
 53 -13 29 -13 29 9 c 0
 29 70 l 0
 29 86 52 86 52 69 c 0
 64 -5 177 4 177 60 c 0
 177 117 95 80 53 123 c 0
 32 143 30 180 54 204 c 0
 82 232 131 239 167 213 c 0
 173 207 177 205 176 217 c 0
 176 232 196 232 196 217 c 0
 196 161 l 0
 197 146 176 146 176 161 c 0
 168 218 65 223 65 163 c 0
 65 102 149 141 192 98 c 0
 208 81 209 41 189 22 c 0
 139 -26 81 -2 53 9 c 0
EndSplineSet
EndChar

StartChar: T
Encoding: 84 84 83
Width: 235
VWidth: 0
Flags: HMW
LayerCount: 2
Fore
SplineSet
66 0 m 0
 51 0 51 22 66 22 c 0
 108 22 l 0
 108 201 l 0
 48 201 l 0
 44 135 l 0
 44 119 20 119 20 135 c 0
 20 209 l 0
 20 217 26 223 34 223 c 0
 206 223 l 0
 214 223 220 217 220 209 c 0
 220 135 l 0
 220 119 196 119 196 135 c 0
 192 201 l 0
 132 201 l 0
 132 22 l 0
 174 22 l 0
 189 22 189 0 174 0 c 0
 66 0 l 0
EndSplineSet
EndChar

StartChar: U
Encoding: 85 85 84
Width: 235
VWidth: 0
Flags: HMW
LayerCount: 2
Fore
SplineSet
177 72 m 0
 177 201 l 0
 159 201 l 0
 144 201 144 223 159 223 c 0
 211 223 l 0
 226 223 226 201 211 201 c 0
 197 201 l 0
 197 69 l 0
 197 -32 42 -32 42 69 c 0
 42 201 l 0
 35 201 l 0
 20 201 20 223 35 223 c 0
 95 223 l 0
 110 223 110 201 95 201 c 0
 66 201 l 0
 66 72 l 0
 66 -5 177 -5 177 72 c 0
EndSplineSet
EndChar

StartChar: V
Encoding: 86 86 85
Width: 235
VWidth: 0
Flags: HMW
LayerCount: 2
Fore
SplineSet
135 0 m 0
 131 -11 108 -12 104 1 c 0
 29 201 l 0
 17 201 l 0
 2 201 2 223 17 223 c 0
 91 223 l 0
 106 223 106 201 91 201 c 0
 57 201 l 0
 122 26 l 0
 192 201 l 0
 157 201 l 0
 142 201 142 223 157 223 c 0
 226 223 l 0
 241 223 241 201 226 201 c 0
 215 201 l 0
 135 0 l 0
EndSplineSet
EndChar

StartChar: W
Encoding: 87 87 86
Width: 235
VWidth: 0
Flags: HMW
LayerCount: 2
Fore
SplineSet
133 170 m 0
 172 35 l 0
 194 201 l 0
 161 201 l 0
 146 201 146 223 161 223 c 0
 224 223 l 0
 239 223 239 201 224 201 c 0
 213 201 l 0
 186 0 l 0
 185 -8 161 -14 157 1 c 0
 118 142 l 0
 76 0 l 0
 75 -8 51 -14 47 1 c 0
 27 201 l 0
 15 201 l 0
 0 201 0 223 15 223 c 0
 83 223 l 0
 98 223 98 201 83 201 c 0
 52 201 l 0
 68 36 l 0
 107 170 l 0
 111 183 130 183 133 170 c 0
EndSplineSet
EndChar

StartChar: X
Encoding: 88 88 87
Width: 235
VWidth: 0
Flags: HMW
LayerCount: 2
Fore
SplineSet
84 22 m 0
 99 22 99 0 84 0 c 0
 29 0 l 0
 14 0 14 22 29 22 c 0
 37 22 l 0
 105 112 l 0
 42 201 l 0
 33 201 l 0
 18 201 18 223 33 223 c 0
 87 223 l 0
 102 223 102 201 87 201 c 0
 72 201 l 0
 120 132 l 0
 172 201 l 0
 152 201 l 0
 137 201 137 223 152 223 c 0
 205 223 l 0
 220 223 220 201 205 201 c 0
 195 201 l 0
 133 116 l 0
 200 22 l 0
 209 22 l 0
 224 22 224 0 209 0 c 0
 152 0 l 0
 137 0 137 22 152 22 c 0
 169 22 l 0
 117 97 l 0
 60 22 l 0
 84 22 l 0
EndSplineSet
EndChar

StartChar: Y
Encoding: 89 89 88
Width: 235
VWidth: 0
Flags: HMW
LayerCount: 2
Fore
SplineSet
151 223 m 0
 216 223 l 0
 231 223 231 201 216 201 c 0
 205 201 l 0
 132 83 l 0
 132 22 l 0
 174 22 l 0
 189 22 189 0 174 0 c 0
 69 0 l 0
 54 0 54 22 69 22 c 0
 108 22 l 0
 108 83 l 0
 41 201 l 0
 29 201 l 0
 14 201 14 223 29 223 c 0
 94 223 l 0
 109 223 109 201 94 201 c 0
 73 201 l 0
 125 105 l 0
 178 201 l 0
 151 201 l 0
 136 201 136 223 151 223 c 0
EndSplineSet
EndChar

StartChar: Z
Encoding: 90 90 89
Width: 235
VWidth: 0
Flags: HMW
LayerCount: 2
Fore
SplineSet
54 0 m 0
 43 0 33 6 43 22 c 0
 164 201 l 0
 79 201 l 0
 77 152 l 0
 77 136 53 136 53 152 c 0
 53 209 l 0
 53 217 59 223 67 223 c 0
 184 223 l 0
 195 223 205 217 195 201 c 0
 76 22 l 0
 164 22 l 0
 172 77 l 0
 173 93 197 93 196 77 c 0
 191 14 l 0
 190 6 184 0 176 0 c 0
 54 0 l 0
EndSplineSet
EndChar

StartChar: dieresis
Encoding: 91 168 90
Width: 235
VWidth: 0
Flags: HMW
LayerCount: 2
Fore
SplineSet
68 212 m 0
 61 219 61 229 68 236 c 0
 76 244 86 244 94 236 c 0
 101 229 101 219 94 212 c 0
 86 204 76 204 68 212 c 0
163 212 m 0
 155 204 145 204 137 212 c 0
 130 219 130 229 137 236 c 0
 145 244 155 244 163 236 c 0
 170 229 170 219 163 212 c 0
EndSplineSet
EndChar

StartChar: ring
Encoding: 92 730 91
Width: 235
VWidth: 0
Flags: HMW
LayerCount: 2
Fore
SplineSet
121 219 m 0
 129 227 129 240 121 248 c 0
 114 255 102 255 95 248 c 0
 87 240 87 227 95 219 c 0
 102 212 114 212 121 219 c 0
134 209 m 0
 119 194 96 194 82 209 c 0
 69 222 69 245 82 258 c 0
 96 273 119 273 134 258 c 0
 147 245 147 222 134 209 c 0
EndSplineSet
EndChar

StartChar: dotaccent
Encoding: 93 729 92
Width: 235
VWidth: 0
Flags: HMW
LayerCount: 2
Fore
SplineSet
108 212 m 0
 101 219 101 229 108 236 c 0
 116 244 126 244 134 236 c 0
 141 229 141 219 134 212 c 0
 126 204 116 204 108 212 c 0
EndSplineSet
EndChar

StartChar: circumflex
Encoding: 94 710 93
Width: 235
VWidth: 0
Flags: HMW
LayerCount: 2
Fore
SplineSet
99 208 m 0
 83 190 59 198 80 219 c 0
 102 241 l 0
 115 254 123 254 136 241 c 0
 158 219 l 0
 179 198 155 190 139 208 c 0
 124 219 l 0
 120 223 118 223 114 219 c 0
 99 208 l 0
EndSplineSet
EndChar

StartChar: underscore
Encoding: 95 95 94
Width: 235
VWidth: 0
Flags: HMW
LayerCount: 2
Fore
SplineSet
0 -70 m 0
 235 -70 l 0
 235 -70 l 0
 235 -92 l 0
 0 -92 l 0
 0 -70 l 0
EndSplineSet
EndChar

StartChar: grave
Encoding: 96 96 95
Width: 235
VWidth: 0
Flags: HMW
LayerCount: 2
Fore
SplineSet
111 205 m 0
 85 222 l 0
 68 234 88 257 108 237 c 0
 130 215 l 0
 142 203 132 190 111 205 c 0
EndSplineSet
EndChar

StartChar: a
Encoding: 97 97 96
Width: 235
VWidth: 0
Flags: HMW
LayerCount: 2
Fore
SplineSet
206 22 m 0
 221 22 221 0 206 0 c 0
 174 0 l 0
 165 0 160 5 160 14 c 0
 160 34 l 0
 137 -6 75 -23 36 16 c 0
 20 32 20 64 40 84 c 0
 70 114 115 112 159 102 c 0
 159 118 158 130 151 137 c 0
 129 159 97 159 57 137 c 0
 48 132 37 157 50 163 c 0
 97 184 149 178 171 156 c 0
 179 148 183 134 183 128 c 0
 183 22 l 0
 206 22 l 0
59 31 m 0
 86 4 131 21 160 50 c 0
 160 81 l 0
 119 93 83 93 60 70 c 0
 49 59 48 42 59 31 c 0
EndSplineSet
EndChar

StartChar: b
Encoding: 98 98 97
Width: 235
VWidth: 0
Flags: HMW
LayerCount: 2
Fore
SplineSet
32 22 m 0
 56 22 l 0
 56 223 l 0
 32 223 l 0
 17 223 17 245 32 245 c 0
 67 245 l 0
 76 245 81 240 81 231 c 0
 81 144 l 0
 107 186 162 186 197 151 c 0
 231 117 231 52 201 22 c 0
 162 -17 104 -17 78 33 c 0
 78 14 l 0
 78 5 73 0 64 0 c 0
 32 0 l 0
 17 0 17 22 32 22 c 0
177 137 m 0
 154 160 120 160 97 137 c 0
 73 113 73 59 97 35 c 0
 121 11 155 11 177 33 c 0
 203 59 203 111 177 137 c 0
EndSplineSet
EndChar

StartChar: c
Encoding: 99 99 98
Width: 235
VWidth: 0
Flags: HMW
LayerCount: 2
Fore
SplineSet
58 17 m 0
 19 56 19 114 58 153 c 0
 89 184 159 184 184 149 c 0
 184 166 l 0
 184 180 204 180 204 166 c 0
 204 107 l 0
 204 94 184 94 184 107 c 0
 184 110 173 129 168 134 c 0
 141 161 100 161 73 134 c 0
 49 110 49 60 73 36 c 0
 101 8 152 8 195 51 c 0
 204 60 217 48 207 38 c 0
 152 -17 92 -17 58 17 c 0
EndSplineSet
EndChar

StartChar: d
Encoding: 100 100 99
Width: 235
VWidth: 0
Flags: HMW
LayerCount: 2
Fore
SplineSet
45 151 m 0
 80 186 135 186 161 144 c 0
 161 223 l 0
 111 223 l 0
 96 223 96 245 111 245 c 0
 172 245 l 0
 181 245 186 240 186 231 c 0
 186 22 l 0
 210 22 l 0
 225 22 225 0 210 0 c 0
 178 0 l 0
 169 0 164 5 164 14 c 0
 164 33 l 0
 138 -17 80 -17 41 22 c 0
 11 52 11 117 45 151 c 0
145 137 m 0
 122 160 88 160 65 137 c 0
 39 111 39 59 65 33 c 0
 87 11 121 11 145 35 c 0
 169 59 169 113 145 137 c 0
EndSplineSet
EndChar

StartChar: e
Encoding: 101 101 100
Width: 235
VWidth: 0
Flags: HMW
LayerCount: 2
Fore
SplineSet
54 78 m 0
 54 74 56 50 70 36 c 0
 104 2 160 18 190 37 c 0
 201 45 210 32 202 24 c 0
 163 -15 89 -15 58 16 c 0
 19 55 19 114 58 153 c 0
 89 184 159 184 184 149 c 0
 195 138 203 116 205 99 c 0
 206 88 204 79 195 78 c 0
 54 78 l 0
54 100 m 0
 183 100 l 0
 183 106 178 124 168 134 c 0
 141 161 100 161 73 134 c 0
 60 121 54 106 54 100 c 0
EndSplineSet
EndChar

StartChar: f
Encoding: 102 102 101
Width: 235
VWidth: 0
Flags: HMW
LayerCount: 2
Fore
SplineSet
186 217 m 0
 168 221 134 234 114 215 c 0
 108 208 105 196 105 192 c 0
 105 171 l 0
 172 171 l 0
 187 171 187 149 172 149 c 0
 105 149 l 0
 105 22 l 0
 172 22 l 0
 187 22 187 0 172 0 c 0
 45 0 l 0
 30 0 30 22 45 22 c 0
 81 22 l 0
 81 149 l 0
 45 149 l 0
 30 149 30 171 45 171 c 0
 81 171 l 0
 81 195 l 0
 81 203 82 219 90 226 c 0
 125 262 173 249 200 244 c 0
 222 241 204 213 186 217 c 0
EndSplineSet
EndChar

StartChar: g
Encoding: 103 103 102
Width: 235
VWidth: 0
Flags: HMW
LayerCount: 2
Fore
SplineSet
158 37 m 0
 134 6 76 6 46 36 c 0
 14 69 14 122 46 154 c 0
 76 184 134 184 161 149 c 0
 161 157 l 0
 161 166 166 171 175 171 c 0
 206 171 l 0
 221 171 221 149 206 149 c 0
 183 149 l 0
 183 10 l 0
 183 -26 168 -46 152 -61 c 0
 134 -79 76 -80 65 -70 c 0
 53 -59 65 -35 80 -43 c 0
 103 -55 126 -53 142 -37 c 0
 150 -29 158 -12 158 4 c 0
 158 37 l 0
145 136 m 0
 122 159 86 159 63 136 c 0
 40 113 40 78 63 55 c 0
 86 32 122 32 145 55 c 0
 168 78 168 113 145 136 c 0
EndSplineSet
EndChar

StartChar: h
Encoding: 104 104 103
Width: 235
VWidth: 0
Flags: HMW
LayerCount: 2
Fore
SplineSet
181 160 m 0
 197 144 195 120 195 117 c 0
 195 22 l 0
 211 22 l 0
 226 22 226 0 211 0 c 0
 154 0 l 0
 139 0 139 22 154 22 c 0
 171 22 l 0
 171 117 l 0
 171 121 169 135 163 141 c 0
 141 163 104 155 78 121 c 0
 78 22 l 0
 93 22 l 0
 108 22 108 0 93 0 c 0
 36 0 l 0
 21 0 21 22 36 22 c 0
 54 22 l 0
 54 223 l 0
 36 223 l 0
 21 223 21 245 36 245 c 0
 64 245 l 0
 72 245 78 239 78 231 c 0
 78 146 l 0
 101 173 150 191 181 160 c 0
EndSplineSet
EndChar

StartChar: i
Encoding: 105 105 104
Width: 235
VWidth: 0
Flags: HMW
LayerCount: 2
Fore
SplineSet
188 0 m 0
 51 0 l 0
 36 0 36 22 51 22 c 0
 106 22 l 0
 106 149 l 0
 66 149 l 0
 51 149 51 171 66 171 c 0
 116 171 l 0
 124 171 130 165 130 157 c 0
 130 22 l 0
 188 22 l 0
 203 22 203 0 188 0 c 0
130 212 m 0
 130 196 106 196 106 212 c 0
 106 241 l 0
 106 257 130 257 130 241 c 0
 130 212 l 0
EndSplineSet
EndChar

StartChar: j
Encoding: 106 106 105
Width: 235
VWidth: 0
Flags: HMW
LayerCount: 2
Fore
SplineSet
145 -13 m 0
 145 149 l 0
 56 149 l 0
 41 149 41 171 56 171 c 0
 155 171 l 0
 163 171 169 165 169 157 c 0
 169 -13 l 0
 169 -33 164 -48 146 -65 c 0
 134 -78 95 -79 56 -73 c 0
 41 -73 41 -51 56 -51 c 0
 95 -54 121 -55 136 -40 c 0
 145 -31 145 -20 145 -13 c 0
128 212 m 0
 128 241 l 0
 128 257 152 257 152 241 c 0
 152 212 l 0
 152 196 128 196 128 212 c 0
EndSplineSet
EndChar

StartChar: k
Encoding: 107 107 106
Width: 235
VWidth: 0
Flags: HMW
LayerCount: 2
Fore
SplineSet
133 149 m 0
 118 149 118 171 133 171 c 0
 195 171 l 0
 210 171 210 149 195 149 c 0
 184 149 l 0
 108 101 l 0
 192 22 l 0
 206 22 l 0
 221 22 221 0 206 0 c 0
 148 0 l 0
 133 0 133 22 148 22 c 0
 159 22 l 0
 92 89 l 0
 78 79 l 0
 78 14 l 0
 78 5 73 0 64 0 c 0
 31 0 l 0
 16 0 16 22 31 22 c 0
 54 22 l 0
 54 223 l 0
 31 223 l 0
 16 223 16 245 31 245 c 0
 64 245 l 0
 73 245 78 240 78 231 c 0
 78 101 l 0
 149 149 l 0
 133 149 l 0
EndSplineSet
EndChar

StartChar: l
Encoding: 108 108 107
Width: 235
VWidth: 0
Flags: HMW
LayerCount: 2
Fore
SplineSet
116 245 m 0
 124 245 130 239 130 231 c 0
 130 22 l 0
 193 22 l 0
 208 22 208 0 193 0 c 0
 44 0 l 0
 29 0 29 22 44 22 c 0
 106 22 l 0
 106 223 l 0
 66 223 l 0
 51 223 51 245 66 245 c 0
 116 245 l 0
EndSplineSet
EndChar

StartChar: m
Encoding: 109 109 108
Width: 235
VWidth: 0
Flags: HMW
LayerCount: 2
Fore
SplineSet
185 14 m 0
 185 115 l 0
 185 173 131 161 131 115 c 0
 131 22 l 0
 147 22 l 0
 162 22 162 0 147 0 c 0
 121 0 l 0
 113 0 107 6 107 14 c 0
 107 115 l 0
 107 162 72 162 54 119 c 0
 54 22 l 0
 69 22 l 0
 84 22 84 0 69 0 c 0
 15 0 l 0
 0 0 0 22 15 22 c 0
 30 22 l 0
 30 149 l 0
 15 149 l 0
 0 149 0 171 15 171 c 0
 40 171 l 0
 48 171 54 165 54 157 c 0
 54 144 l 0
 75 186 114 185 127 149 c 0
 152 190 209 189 209 115 c 0
 209 22 l 0
 222 22 l 0
 237 22 237 0 222 0 c 0
 199 0 l 0
 191 0 185 6 185 14 c 0
EndSplineSet
EndChar

StartChar: n
Encoding: 110 110 109
Width: 235
VWidth: 0
Flags: HMW
LayerCount: 2
Fore
SplineSet
64 171 m 0
 72 171 78 165 78 157 c 0
 78 146 l 0
 101 173 150 191 181 160 c 0
 197 144 195 120 195 117 c 0
 195 22 l 0
 211 22 l 0
 226 22 226 0 211 0 c 0
 154 0 l 0
 139 0 139 22 154 22 c 0
 171 22 l 0
 171 117 l 0
 171 121 169 135 163 141 c 0
 141 163 104 155 78 121 c 0
 78 22 l 0
 93 22 l 0
 108 22 108 0 93 0 c 0
 36 0 l 0
 21 0 21 22 36 22 c 0
 54 22 l 0
 54 149 l 0
 36 149 l 0
 21 149 21 171 36 171 c 0
 64 171 l 0
EndSplineSet
EndChar

StartChar: o
Encoding: 111 111 110
Width: 235
VWidth: 0
Flags: HMW
LayerCount: 2
Fore
SplineSet
186 153 m 0
 225 114 225 56 186 17 c 0
 155 -14 77 -14 52 17 c 0
 13 56 13 114 52 153 c 0
 83 184 161 184 186 153 c 0
170 134 m 0
 143 161 94 161 67 134 c 0
 43 110 43 60 67 36 c 0
 94 9 143 9 170 36 c 0
 194 60 194 110 170 134 c 0
EndSplineSet
EndChar

StartChar: p
Encoding: 112 112 111
Width: 235
VWidth: 0
Flags: HMW
LayerCount: 2
Fore
SplineSet
72 157 m 0
 72 137 l 0
 99 187 157 187 196 148 c 0
 226 118 226 53 192 19 c 0
 157 -16 102 -16 76 26 c 0
 76 -52 l 0
 115 -52 l 0
 130 -52 130 -74 115 -74 c 0
 26 -74 l 0
 11 -74 11 -52 26 -52 c 0
 50 -52 l 0
 50 149 l 0
 26 149 l 0
 11 149 11 171 26 171 c 0
 58 171 l 0
 67 171 72 166 72 157 c 0
172 33 m 0
 198 59 198 111 172 137 c 0
 150 159 116 159 92 135 c 0
 68 111 68 57 92 33 c 0
 115 10 149 10 172 33 c 0
EndSplineSet
EndChar

StartChar: q
Encoding: 113 113 112
Width: 235
VWidth: 0
Flags: HMW
LayerCount: 2
Fore
SplineSet
157 26 m 0
 131 -16 76 -16 41 19 c 0
 7 53 7 118 37 148 c 0
 76 187 134 187 161 137 c 0
 161 157 l 0
 161 166 166 171 175 171 c 0
 207 171 l 0
 222 171 222 149 207 149 c 0
 183 149 l 0
 183 -52 l 0
 209 -52 l 0
 224 -52 224 -74 209 -74 c 0
 118 -74 l 0
 103 -74 103 -52 118 -52 c 0
 157 -52 l 0
 157 26 l 0
141 135 m 0
 117 159 83 159 61 137 c 0
 35 111 35 59 61 33 c 0
 84 10 118 10 141 33 c 0
 165 57 165 111 141 135 c 0
EndSplineSet
EndChar

StartChar: r
Encoding: 114 114 113
Width: 235
VWidth: 0
Flags: HMW
LayerCount: 2
Fore
SplineSet
193 136 m 0
 162 167 142 146 98 103 c 0
 98 22 l 0
 173 22 l 0
 188 22 188 0 173 0 c 0
 31 0 l 0
 16 0 16 22 31 22 c 0
 74 22 l 0
 74 149 l 0
 46 149 l 0
 31 149 31 171 46 171 c 0
 84 171 l 0
 93 171 98 166 98 157 c 0
 98 123 l 0
 123 165 180 195 212 163 c 0
 223 152 203 126 193 136 c 0
EndSplineSet
EndChar

StartChar: s
Encoding: 115 115 114
Width: 235
VWidth: 0
Flags: HMW
LayerCount: 2
Fore
SplineSet
192 123 m 0
 192 109 172 109 172 123 c 0
 165 150 105 169 79 143 c 0
 69 133 68 120 76 112 c 0
 104 84 155 112 188 79 c 0
 203 64 204 34 184 14 c 0
 155 -15 91 -8 64 10 c 0
 60 12 59 17 59 4 c 0
 59 -10 39 -10 39 4 c 0
 39 53 l 0
 39 67 59 67 59 53 c 0
 88 10 138 2 166 30 c 0
 173 37 175 54 168 61 c 0
 147 82 85 64 56 93 c 0
 42 107 42 139 58 155 c 0
 85 182 130 181 162 164 c 0
 170 157 172 165 172 169 c 0
 172 183 192 183 192 169 c 0
 192 123 l 0
EndSplineSet
EndChar

StartChar: t
Encoding: 116 116 115
Width: 235
VWidth: 0
Flags: HMW
LayerCount: 2
Fore
SplineSet
74 55 m 0
 74 149 l 0
 40 149 l 0
 25 149 25 171 40 171 c 0
 74 171 l 0
 74 194 l 0
 74 204 72 222 72 231 c 0
 72 246 100 246 100 231 c 0
 100 222 98 204 98 194 c 0
 98 171 l 0
 186 171 l 0
 201 171 201 149 186 149 c 0
 98 149 l 0
 98 64 l 0
 98 57 98 38 109 27 c 0
 126 10 172 21 203 34 c 0
 215 39 222 20 213 16 c 0
 185 3 125 -26 83 17 c 0
 75 24 74 47 74 55 c 0
EndSplineSet
EndChar

StartChar: u
Encoding: 117 117 116
Width: 235
VWidth: 0
Flags: HMW
LayerCount: 2
Fore
SplineSet
71 157 m 0
 71 52 l 0
 71 48 73 34 79 28 c 0
 101 6 138 14 164 48 c 0
 164 149 l 0
 132 149 l 0
 117 149 117 171 132 171 c 0
 174 171 l 0
 182 171 188 165 188 157 c 0
 188 22 l 0
 206 22 l 0
 221 22 221 0 206 0 c 0
 178 0 l 0
 170 0 164 6 164 14 c 0
 164 24 l 0
 141 -3 92 -21 61 10 c 0
 45 26 47 50 47 53 c 0
 47 149 l 0
 31 149 l 0
 16 149 16 171 31 171 c 0
 57 171 l 0
 65 171 71 165 71 157 c 0
EndSplineSet
EndChar

StartChar: v
Encoding: 118 118 117
Width: 235
VWidth: 0
Flags: HMW
LayerCount: 2
Fore
SplineSet
135 8 m 0
 123 -13 113 -14 102 7 c 0
 37 149 l 0
 26 149 l 0
 11 149 11 171 26 171 c 0
 89 171 l 0
 104 171 104 149 89 149 c 0
 64 149 l 0
 119 24 l 0
 177 149 l 0
 149 149 l 0
 134 149 134 171 149 171 c 0
 211 171 l 0
 226 171 226 149 211 149 c 0
 201 149 l 0
 135 8 l 0
EndSplineSet
EndChar

StartChar: w
Encoding: 119 119 118
Width: 235
VWidth: 0
Flags: HMW
LayerCount: 2
Fore
SplineSet
222 149 m 0
 217 149 l 0
 173 4 l 0
 168 -12 153 -12 148 2 c 0
 117 89 l 0
 86 2 l 0
 81 -12 66 -12 61 4 c 0
 18 149 l 0
 14 149 l 0
 -1 149 -1 171 14 171 c 0
 70 171 l 0
 85 171 85 149 70 149 c 0
 45 149 l 0
 76 36 l 0
 110 121 l 0
 115 134 127 134 131 121 c 0
 162 36 l 0
 196 149 l 0
 168 149 l 0
 153 149 153 171 168 171 c 0
 222 171 l 0
 237 171 237 149 222 149 c 0
EndSplineSet
EndChar

StartChar: x
Encoding: 120 120 119
Width: 235
VWidth: 0
Flags: HMW
LayerCount: 2
Fore
SplineSet
206 0 m 0
 148 0 l 0
 133 0 133 22 148 22 c 0
 159 22 l 0
 114 71 l 0
 65 22 l 0
 81 22 l 0
 96 22 96 0 81 0 c 0
 26 0 l 0
 11 0 11 22 26 22 c 0
 34 22 l 0
 98 87 l 0
 38 149 l 0
 29 149 l 0
 14 149 14 171 29 171 c 0
 81 171 l 0
 96 171 96 149 81 149 c 0
 73 149 l 0
 115 103 l 0
 161 149 l 0
 148 149 l 0
 133 149 133 171 148 171 c 0
 199 171 l 0
 214 171 214 149 199 149 c 0
 191 149 l 0
 130 88 l 0
 192 22 l 0
 206 22 l 0
 221 22 221 0 206 0 c 0
EndSplineSet
EndChar

StartChar: y
Encoding: 121 121 120
Width: 235
VWidth: 0
Flags: HMW
LayerCount: 2
Fore
SplineSet
30 149 m 0
 15 149 15 171 30 171 c 0
 83 171 l 0
 98 171 98 149 83 149 c 0
 65 149 l 0
 123 35 l 0
 178 149 l 0
 158 149 l 0
 143 149 143 171 158 171 c 0
 212 171 l 0
 227 171 227 149 212 149 c 0
 202 149 l 0
 96 -52 l 0
 125 -52 l 0
 140 -52 140 -74 125 -74 c 0
 30 -74 l 0
 15 -74 15 -52 30 -52 c 0
 69 -52 l 0
 109 14 l 0
 38 149 l 0
 30 149 l 0
EndSplineSet
EndChar

StartChar: z
Encoding: 122 122 121
Width: 235
VWidth: 0
Flags: HMW
LayerCount: 2
Fore
SplineSet
47 0 m 0
 28 0 27 12 37 22 c 0
 161 149 l 0
 69 149 l 0
 69 126 l 0
 69 110 45 110 45 126 c 0
 45 157 l 0
 45 165 51 171 59 171 c 0
 185 171 l 0
 202 171 207 161 195 149 c 0
 73 22 l 0
 162 22 l 0
 168 47 l 0
 168 63 192 63 192 47 c 0
 192 41 189 20 189 14 c 0
 189 6 183 0 175 0 c 0
 47 0 l 0
EndSplineSet
EndChar

StartChar: breve
Encoding: 123 728 122
Width: 235
VWidth: 0
Flags: HMW
LayerCount: 2
Fore
SplineSet
51 283 m 0
 50 295 66 295 69 284 c 0
 71 260 89 250 110 250 c 0
 138 250 151 262 155 284 c 0
 160 297 173 292 172 284 c 0
 169 245 144 228 110 228 c 0
 82 228 54 242 51 283 c 0
EndSplineSet
EndChar

StartChar: macron
Encoding: 124 175 123
Width: 235
VWidth: 0
Flags: HMW
LayerCount: 2
Fore
SplineSet
157 239 m 0
 172 239 172 215 157 215 c 0
 74 215 l 0
 59 215 59 239 74 239 c 0
 157 239 l 0
EndSplineSet
EndChar

StartChar: hungarumlaut
Encoding: 125 733 124
Width: 235
VWidth: 0
Flags: HMW
LayerCount: 2
Fore
SplineSet
129 197 m 0
 156 244 l 0
 160 258 186 252 181 238 c 0
 149 191 l 0
 145 179 125 183 129 197 c 0
68 197 m 0
 95 244 l 0
 99 258 125 252 120 238 c 0
 88 191 l 0
 84 179 64 183 68 197 c 0
EndSplineSet
EndChar

StartChar: tilde
Encoding: 126 732 125
Width: 235
VWidth: 0
Flags: HMW
LayerCount: 2
Fore
SplineSet
118 212 m 0
 106 222 90 222 87 210 c 0
 85 202 68 208 75 222 c 0
 88 247 102 252 126 234 c 0
 138 224 154 224 157 237 c 0
 159 245 178 241 169 224 c 0
 156 199 142 194 118 212 c 0
EndSplineSet
EndChar

StartChar: caron
Encoding: 127 711 126
Width: 235
VWidth: 0
Flags: HMW
LayerCount: 2
Fore
SplineSet
81 231 m 0
 65 243 72 260 89 245 c 0
 112 226 l 0
 117 222 122 222 127 226 c 0
 150 245 l 0
 162 258 173 248 161 233 c 0
 130 204 l 0
 121 196 119 196 110 204 c 0
 81 231 l 0
EndSplineSet
EndChar

StartChar: onesuperior
Encoding: 128 185 127
Width: 235
VWidth: 0
Flags: HMW
LayerCount: 2
Fore
SplineSet
126 226 m 0
 126 140 l 0
 148 140 l 0
 157 140 157 125 148 125 c 0
 90 125 l 0
 81 125 81 140 90 140 c 0
 110 140 l 0
 110 222 l 0
 94 222 l 0
 85 222 85 237 94 237 c 0
 115 237 l 0
 125 237 126 236 126 226 c 0
EndSplineSet
EndChar

StartChar: twosuperior
Encoding: 129 178 128
Width: 235
VWidth: 0
Flags: HMW
LayerCount: 2
Fore
SplineSet
146 125 m 0
 89 125 l 0
 83 125 80 131 87 139 c 0
 115 168 l 0
 142 197 141 212 133 220 c 0
 124 229 112 229 99 216 c 0
 90 207 80 217 94 231 c 0
 109 246 132 246 146 232 c 0
 158 220 159 194 143 178 c 0
 106 140 l 0
 140 140 l 0
 140 152 154 152 155 138 c 0
 155 131 152 125 146 125 c 0
EndSplineSet
EndChar

StartChar: threesuperior
Encoding: 130 179 129
Width: 235
VWidth: 0
Flags: HMW
LayerCount: 2
Fore
SplineSet
95 145 m 0
 105 135 121 135 131 145 c 0
 145 159 135 179 117 179 c 0
 104 179 104 193 117 193 c 0
 124 193 139 210 129 220 c 0
 118 231 102 223 100 221 c 0
 91 212 80 221 91 232 c 0
 105 246 128 246 142 232 c 0
 156 218 147 194 133 187 c 0
 153 178 166 154 144 132 c 0
 131 119 99 119 86 131 c 0
 77 141 87 153 95 145 c 0
EndSplineSet
EndChar

StartChar: foursuperior
Encoding: 131 8308 130
Width: 235
VWidth: 0
Flags: HMW
LayerCount: 2
Fore
SplineSet
123 165 m 0
 123 211 l 0
 98 165 l 0
 123 165 l 0
123 234 m 0
 129 244 139 244 139 234 c 0
 139 165 l 0
 143 165 l 0
 153 165 153 151 143 151 c 0
 139 151 l 0
 139 135 l 0
 143 135 l 0
 152 135 152 121 143 121 c 0
 120 121 l 0
 111 121 111 135 120 135 c 0
 123 135 l 0
 123 151 l 0
 85 151 l 0
 79 151 80 159 81 162 c 0
 123 234 l 0
EndSplineSet
EndChar

StartChar: fraction
Encoding: 132 8260 131
Width: 235
VWidth: 0
Flags: HMW
LayerCount: 2
Fore
SplineSet
74 108 m 0
 62 108 62 124 74 124 c 0
 166 124 l 0
 178 124 178 108 166 108 c 0
 74 108 l 0
EndSplineSet
EndChar

StartChar: percent
Encoding: 136 37 135
Width: 235
VWidth: 0
Flags: HMW
LayerCount: 2
Fore
SplineSet
76 205 m 0
 64 193 64 169 76 157 c 0
 86 147 110 147 120 157 c 0
 132 169 132 193 120 205 c 0
 110 215 86 215 76 205 c 0
57 214 m 0
 77 234 119 234 139 214 c 0
 156 197 156 165 139 148 c 0
 119 128 77 128 57 148 c 0
 40 165 40 197 57 214 c 0
102 8 m 0
 85 25 85 57 102 74 c 0
 122 94 164 94 184 74 c 0
 201 57 201 25 184 8 c 0
 164 -12 122 -12 102 8 c 0
121 17 m 0
 131 7 155 7 165 17 c 0
 177 29 177 53 165 65 c 0
 155 75 131 75 121 65 c 0
 109 53 109 29 121 17 c 0
65 78 m 0
 51 72 50 92 58 96 c 0
 177 145 l 0
 191 151 192 131 184 127 c 0
 65 78 l 0
EndSplineSet
EndChar

StartChar: perthousand
Encoding: 137 8240 136
Width: 235
VWidth: 0
Flags: HMW
LayerCount: 2
Fore
SplineSet
22 90 m 0
 8 84 7 104 15 108 c 0
 162 145 l 0
 176 151 177 131 169 127 c 0
 22 90 l 0
58 17 m 0
 68 7 80 7 90 17 c 0
 102 29 102 53 90 65 c 0
 80 75 68 75 58 65 c 0
 46 53 46 29 58 17 c 0
39 8 m 0
 22 25 22 57 39 74 c 0
 59 94 89 94 109 74 c 0
 126 57 126 25 109 8 c 0
 89 -12 59 -12 39 8 c 0
17 214 m 0
 37 234 67 234 87 214 c 0
 104 197 104 165 87 148 c 0
 67 128 37 128 17 148 c 0
 0 165 0 197 17 214 c 0
36 205 m 0
 24 193 24 169 36 157 c 0
 46 147 58 147 68 157 c 0
 80 169 80 193 68 205 c 0
 58 215 46 215 36 205 c 0
143 74 m 0
 166 94 189 94 213 74 c 0
 230 52 230 30 213 8 c 0
 194 -12 163 -12 143 8 c 0
 126 27 126 55 143 74 c 0
194 65 m 0
 183 75 172 75 162 65 c 0
 149 51 150 32 162 17 c 0
 172 7 183 7 194 17 c 0
 194 17 l 0
 206 32 206 51 194 65 c 0
EndSplineSet
EndChar

StartChar: degree
Encoding: 138 176 137
Width: 235
VWidth: 0
Flags: HMW
LayerCount: 2
Fore
SplineSet
99 177 m 0
 107 169 121 169 129 177 c 0
 138 186 138 200 129 209 c 0
 121 217 107 217 99 209 c 0
 90 200 90 186 99 177 c 0
143 221 m 0
 158 206 158 180 143 165 c 0
 127 149 101 149 85 165 c 0
 70 180 70 206 85 221 c 0
 101 237 127 237 143 221 c 0
EndSplineSet
EndChar

StartChar: periodcentered
Encoding: 139 183 138
Width: 235
VWidth: 0
Flags: HMW
LayerCount: 2
Fore
SplineSet
143 68 m 0
 134 59 109 58 99 68 c 0
 85 82 85 100 99 114 c 0
 109 124 134 123 143 114 c 0
 157 100 157 82 143 68 c 0
EndSplineSet
EndChar

StartChar: bullet
Encoding: 140 8226 139
Width: 235
VWidth: 0
Flags: HMW
LayerCount: 2
Fore
SplineSet
83 53 m 0
 62 74 62 108 83 129 c 0
 104 150 138 150 159 129 c 0
 180 108 180 74 159 53 c 0
 138 32 104 32 83 53 c 0
EndSplineSet
EndChar

StartChar: guilsinglleft
Encoding: 141 8249 140
Width: 235
VWidth: 0
Flags: HMW
LayerCount: 2
Fore
SplineSet
150 133 m 0
 124 104 l 0
 115 94 115 90 124 80 c 0
 150 51 l 0
 163 36 147 25 133 38 c 0
 98 70 l 0
 78 88 78 96 97 113 c 0
 133 146 l 0
 147 159 163 148 150 133 c 0
EndSplineSet
EndChar

StartChar: guilsinglright
Encoding: 142 8250 141
Width: 235
VWidth: 0
Flags: HMW
LayerCount: 2
Fore
SplineSet
141 113 m 0
 160 96 160 88 140 70 c 0
 105 38 l 0
 91 25 75 36 88 51 c 0
 114 80 l 0
 123 90 123 94 114 104 c 0
 88 133 l 0
 75 148 91 159 105 146 c 0
 141 113 l 0
EndSplineSet
EndChar

StartChar: guillemotleft
Encoding: 143 171 142
Width: 235
VWidth: 0
Flags: HMW
LayerCount: 2
Fore
SplineSet
143 113 m 0
 179 146 l 0
 193 159 209 148 196 133 c 0
 170 104 l 0
 161 94 161 90 170 80 c 0
 196 51 l 0
 209 36 193 25 179 38 c 0
 144 70 l 0
 124 88 124 96 143 113 c 0
53 70 m 0
 33 88 33 96 52 113 c 0
 88 146 l 0
 102 159 118 148 105 133 c 0
 79 104 l 0
 70 94 70 90 79 80 c 0
 105 51 l 0
 118 36 102 25 88 38 c 0
 53 70 l 0
EndSplineSet
EndChar

StartChar: guillemotright
Encoding: 144 187 143
Width: 235
VWidth: 0
Flags: HMW
LayerCount: 2
Fore
SplineSet
187 113 m 0
 206 96 206 88 186 70 c 0
 151 38 l 0
 137 25 121 36 134 51 c 0
 160 80 l 0
 169 90 169 94 160 104 c 0
 134 133 l 0
 121 148 137 159 151 146 c 0
 187 113 l 0
95 70 m 0
 60 38 l 0
 46 25 30 36 43 51 c 0
 69 80 l 0
 78 90 78 94 69 104 c 0
 43 133 l 0
 30 148 46 159 60 146 c 0
 96 113 l 0
 115 96 115 88 95 70 c 0
EndSplineSet
EndChar

StartChar: paragraph
Encoding: 145 182 144
Width: 235
VWidth: 0
Flags: HMW
LayerCount: 2
Fore
SplineSet
108 223 m 0
 198 223 l 0
 213 223 213 201 198 201 c 0
 180 201 l 0
 180 -63 l 0
 180 -78 156 -78 156 -63 c 0
 156 201 l 0
 132 201 l 0
 132 -63 l 0
 132 -78 108 -78 108 -63 c 0
 108 86 l 0
 89 86 70 91 54 107 c 0
 30 131 30 178 54 202 c 0
 70 218 89 223 108 223 c 0
EndSplineSet
EndChar

StartChar: section
Encoding: 146 167 145
Width: 235
VWidth: 0
Flags: HMW
LayerCount: 2
Fore
SplineSet
151 47 m 0
 170 34 184 -1 162 -23 c 0
 140 -45 98 -45 79 -26 c 0
 60 -7 71 14 78 14 c 0
 94 14 97 6 99 -12 c 0
 100 -26 138 -27 143 -12 c 0
 146 -2 157 13 132 29 c 0
 75 68 l 0
 44 89 57 136 87 145 c 0
 70 155 59 193 78 212 c 0
 100 234 145 234 163 216 c 0
 175 203 177 187 169 179 c 0
 161 172 147 180 147 185 c 0
 148 211 118 222 102 207 c 0
 89 194 87 174 118 154 c 0
 163 124 l 0
 194 103 181 56 151 47 c 0
148 105 m 0
 107 132 l 0
 95 141 61 107 90 88 c 0
 131 61 l 0
 143 52 177 86 148 105 c 0
EndSplineSet
EndChar

StartChar: plus
Encoding: 147 43 146
Width: 235
VWidth: 0
Flags: HMW
LayerCount: 2
Fore
SplineSet
185 80 m 0
 132 80 l 0
 132 23 l 0
 132 8 108 8 108 23 c 0
 108 80 l 0
 55 80 l 0
 40 80 40 102 55 102 c 0
 108 102 l 0
 108 158 l 0
 108 173 132 173 132 158 c 0
 132 102 l 0
 185 102 l 0
 200 102 200 80 185 80 c 0
EndSplineSet
EndChar

StartChar: multiply
Encoding: 148 215 147
Width: 235
VWidth: 0
Flags: HMW
LayerCount: 2
Fore
SplineSet
195 32 m 0
 209 18 191 5 179 16 c 0
 120 75 l 0
 60 15 l 0
 50 5 34 21 44 30 c 0
 104 90 l 0
 44 150 l 0
 34 160 50 176 60 166 c 0
 120 106 l 0
 179 165 l 0
 190 177 208 163 196 151 c 0
 136 91 l 0
 195 32 l 0
EndSplineSet
EndChar

StartChar: divide
Encoding: 149 247 148
Width: 235
VWidth: 0
Flags: HMW
LayerCount: 2
Fore
SplineSet
42 102 m 0
 174 102 l 0
 189 102 189 80 174 80 c 0
 42 80 l 0
 27 80 27 102 42 102 c 0
121 142 m 0
 128 135 128 123 121 116 c 0
 114 109 104 109 97 116 c 0
 90 123 90 135 97 142 c 0
 104 149 114 149 121 142 c 0
121 63 m 0
 128 56 128 44 121 37 c 0
 114 30 104 30 97 37 c 0
 90 44 90 56 97 63 c 0
 104 70 114 70 121 63 c 0
EndSplineSet
EndChar

StartChar: plusminus
Encoding: 150 177 149
Width: 235
VWidth: 0
Flags: HMW
LayerCount: 2
Fore
SplineSet
55 34 m 0
 185 34 l 0
 200 34 200 12 185 12 c 0
 55 12 l 0
 40 12 40 34 55 34 c 0
185 98 m 0
 132 98 l 0
 132 58 l 0
 132 43 108 43 108 58 c 0
 108 98 l 0
 55 98 l 0
 40 98 40 120 55 120 c 0
 108 120 l 0
 108 158 l 0
 108 173 132 173 132 158 c 0
 132 120 l 0
 185 120 l 0
 200 120 200 98 185 98 c 0
EndSplineSet
EndChar

StartChar: endash
Encoding: 151 8211 150
Width: 235
VWidth: 0
Flags: HMW
LayerCount: 2
Fore
SplineSet
151 76 m 0
 80 76 l 0
 65 76 65 98 80 98 c 0
 151 98 l 0
 166 98 166 76 151 76 c 0
EndSplineSet
EndChar

StartChar: emdash
Encoding: 152 8212 151
Width: 235
VWidth: 0
Flags: HMW
LayerCount: 2
Fore
SplineSet
0 98 m 0
 235 98 l 0
 250 98 250 76 235 76 c 0
 0 76 l 0
 -15 76 -15 98 0 98 c 0
EndSplineSet
EndChar

StartChar: minus
Encoding: 153 8722 152
Width: 235
VWidth: 0
Flags: HMW
LayerCount: 2
Fore
SplineSet
183 76 m 0
 52 76 l 0
 37 76 37 98 52 98 c 0
 183 98 l 0
 198 98 198 76 183 76 c 0
EndSplineSet
EndChar

StartChar: bracketleft
Encoding: 154 91 153
Width: 235
VWidth: 0
Flags: HMW
LayerCount: 2
Fore
SplineSet
92 -60 m 0
 92 231 l 0
 92 240 97 245 106 245 c 0
 145 245 l 0
 160 245 160 223 145 223 c 0
 116 223 l 0
 116 -52 l 0
 145 -52 l 0
 160 -52 160 -74 145 -74 c 0
 106 -74 l 0
 97 -74 92 -69 92 -60 c 0
EndSplineSet
EndChar

StartChar: bracketright
Encoding: 155 93 154
Width: 235
VWidth: 0
Flags: HMW
LayerCount: 2
Fore
SplineSet
91 245 m 0
 130 245 l 0
 139 245 144 240 144 231 c 0
 144 -60 l 0
 144 -69 139 -74 130 -74 c 0
 91 -74 l 0
 76 -74 76 -52 91 -52 c 0
 120 -52 l 0
 120 223 l 0
 91 223 l 0
 76 223 76 245 91 245 c 0
EndSplineSet
EndChar

StartChar: dagger
Encoding: 156 8224 155
Width: 235
VWidth: 0
Flags: HMW
LayerCount: 2
Fore
SplineSet
108 171 m 0
 101 219 108 233 108 234 c 0
 108 249 132 249 132 234 c 0
 132 233 139 219 132 171 c 0
 169 171 l 0
 184 171 184 149 169 149 c 0
 132 149 l 0
 132 -63 l 0
 132 -78 108 -78 108 -63 c 0
 108 149 l 0
 71 149 l 0
 56 149 56 171 71 171 c 0
 108 171 l 0
EndSplineSet
EndChar

StartChar: daggerdbl
Encoding: 157 8225 156
Width: 235
VWidth: 0
Flags: HMW
LayerCount: 2
Fore
SplineSet
71 0 m 0
 56 0 56 22 71 22 c 0
 108 22 l 0
 108 149 l 0
 71 149 l 0
 56 149 56 171 71 171 c 0
 108 171 l 0
 101 219 108 233 108 234 c 0
 108 249 132 249 132 234 c 0
 132 233 139 219 132 171 c 0
 169 171 l 0
 184 171 184 149 169 149 c 0
 132 149 l 0
 132 22 l 0
 169 22 l 0
 184 22 184 0 169 0 c 0
 132 0 l 0
 139 -48 132 -62 132 -63 c 0
 132 -78 108 -78 108 -63 c 0
 108 -62 101 -48 108 0 c 0
 71 0 l 0
EndSplineSet
EndChar

StartChar: braceleft
Encoding: 158 123 157
Width: 235
VWidth: 0
Flags: HMW
LayerCount: 2
Fore
SplineSet
116 122 m 0
 116 102 104 93 93 86 c 0
 104 79 116 70 116 50 c 0
 116 -27 l 0
 116 -47 121 -52 135 -52 c 0
 150 -52 150 -74 135 -74 c 0
 106 -74 92 -60 92 -27 c 0
 92 50 l 0
 92 70 86 73 70 75 c 0
 55 75 55 97 70 97 c 0
 86 99 92 102 92 122 c 0
 92 198 l 0
 92 231 106 245 135 245 c 0
 150 245 150 223 135 223 c 0
 121 223 116 218 116 198 c 0
 116 122 l 0
EndSplineSet
EndChar

StartChar: braceright
Encoding: 159 125 158
Width: 235
VWidth: 0
Flags: HMW
LayerCount: 2
Fore
SplineSet
92 198 m 0
 92 218 87 223 73 223 c 0
 58 223 58 245 73 245 c 0
 102 245 116 231 116 198 c 0
 116 121 l 0
 116 101 122 98 138 96 c 0
 153 96 153 74 138 74 c 0
 122 72 116 69 116 49 c 0
 116 -27 l 0
 116 -60 102 -74 73 -74 c 0
 58 -74 58 -52 73 -52 c 0
 87 -52 92 -47 92 -27 c 0
 92 49 l 0
 92 69 104 78 115 85 c 0
 104 92 92 101 92 121 c 0
 92 198 l 0
EndSplineSet
EndChar

StartChar: at
Encoding: 160 64 159
Width: 235
VWidth: 0
Flags: HMW
LayerCount: 2
Fore
SplineSet
69 200 m 0
 99 230 155 230 182 203 c 0
 194 191 200 169 200 163 c 0
 200 57 l 0
 208 46 l 0
 218 32 205 23 198 30 c 0
 183 46 l 0
 164 31 135 24 111 48 c 0
 88 71 88 113 111 136 c 0
 128 153 155 153 175 145 c 0
 176 155 180 173 165 188 c 0
 142 211 112 211 88 188 c 0
 51 150 50 13 95 -14 c 0
 131 -37 146 -23 169 -16 c 0
 179 -9 188 -23 179 -32 c 0
 151 -54 99 -54 72 -27 c 0
 25 20 25 156 69 200 c 0
128 119 m 0
 116 107 116 75 128 63 c 0
 143 48 164 57 175 65 c 0
 175 122 l 0
 156 133 143 134 128 119 c 0
EndSplineSet
EndChar

StartChar: ampersand
Encoding: 161 38 160
Width: 235
VWidth: 0
Flags: HMW
LayerCount: 2
Fore
SplineSet
173 45 m 0
 188 22 l 0
 201 22 l 0
 216 22 216 0 201 0 c 0
 185 0 l 0
 183 0 180 -1 178 0 c 0
 173 1 170 8 166 14 c 0
 164 18 161 21 158 24 c 0
 125 -8 78 -16 50 12 c 0
 21 41 21 83 55 117 c 0
 66 128 74 133 80 137 c 0
 66 151 37 193 71 227 c 0
 96 252 131 252 153 230 c 0
 187 196 150 153 112 133 c 0
 160 64 l 0
 165 72 168 78 172 89 c 0
 176 105 174 126 186 125 c 0
 209 125 l 0
 224 125 224 103 209 103 c 0
 195 103 l 0
 190 84 181 63 173 45 c 0
147 43 m 0
 91 121 l 0
 84 117 78 112 73 106 c 0
 53 85 53 49 70 32 c 0
 95 7 130 17 147 43 c 0
135 216 m 0
 124 227 104 227 90 213 c 0
 72 195 86 166 102 148 c 0
 132 167 157 194 135 216 c 0
EndSplineSet
EndChar

StartChar: asciicircum
Encoding: 162 94 161
Width: 235
VWidth: 0
Flags: HMW
LayerCount: 2
Fore
SplineSet
37 169 m 0
 107 260 l 0
 113 267 125 268 132 261 c 0
 203 168 l 0
 215 152 192 141 182 154 c 0
 125 231 l 0
 123 235 117 235 114 231 c 0
 56 154 l 0
 44 140 25 154 37 169 c 0
EndSplineSet
EndChar

StartChar: bar
Encoding: 163 124 162
Width: 235
VWidth: 0
Flags: HMW
LayerCount: 2
Fore
SplineSet
132 -62 m 0
 132 -78 108 -78 108 -62 c 0
 108 233 l 0
 108 249 132 249 132 233 c 0
 132 -62 l 0
EndSplineSet
EndChar

StartChar: brokenbar
Encoding: 164 166 163
Width: 235
VWidth: 0
Flags: HMW
LayerCount: 2
Fore
SplineSet
132 -62 m 0
 132 -78 108 -78 108 -62 c 0
 108 47 l 0
 108 63 132 63 132 47 c 0
 132 -62 l 0
132 124 m 0
 132 108 108 108 108 124 c 0
 108 233 l 0
 108 249 132 249 132 233 c 0
 132 124 l 0
EndSplineSet
EndChar

StartChar: logicalnot
Encoding: 165 172 164
Width: 235
VWidth: 0
Flags: HMW
LayerCount: 2
Fore
SplineSet
9 80 m 0
 9 102 l 0
 227 102 l 0
 227 5 l 0
 205 5 l 0
 205 80 l 0
 9 80 l 0
EndSplineSet
EndChar

StartChar: copyright
Encoding: 166 169 165
Width: 235
VWidth: 0
Flags: HMW
LayerCount: 2
Fore
SplineSet
157 73 m 0
 129 45 102 46 82 66 c 0
 62 86 62 132 88 158 c 0
 103 173 125 172 137 159 c 0
 137 172 152 172 152 159 c 0
 152 134 l 0
 152 121 139 121 137 134 c 0
 134 152 114 160 97 143 c 0
 81 127 81 95 96 80 c 0
 111 65 130 65 148 83 c 0
 156 91 165 81 157 73 c 0
172 166 m 0
 143 195 93 195 64 166 c 0
 33 135 33 87 64 56 c 0
 93 27 143 27 172 56 c 0
 203 87 203 135 172 166 c 0
182 46 m 0
 147 11 89 11 54 46 c 0
 18 82 18 140 54 176 c 0
 89 211 147 211 182 176 c 0
 218 140 218 82 182 46 c 0
EndSplineSet
EndChar

StartChar: registered
Encoding: 167 174 166
Width: 235
VWidth: 0
Flags: HMW
LayerCount: 2
Fore
SplineSet
115 118 m 0
 142 118 142 155 114 155 c 0
 105 155 l 0
 105 118 l 0
 115 118 l 0
128 107 m 0
 139 97 149 81 155 69 c 0
 163 69 l 0
 170 69 170 54 163 54 c 0
 149 54 l 0
 136 63 124 103 112 103 c 0
 105 102 l 0
 105 69 l 0
 115 69 l 0
 122 69 122 54 115 54 c 0
 80 54 l 0
 73 54 73 69 80 69 c 0
 89 69 l 0
 89 155 l 0
 83 155 l 0
 72 155 72 171 83 171 c 0
 128 171 l 0
 157 171 168 116 128 107 c 0
172 56 m 0
 203 87 203 135 172 166 c 0
 143 195 93 195 64 166 c 0
 33 135 33 87 64 56 c 0
 93 27 143 27 172 56 c 0
182 46 m 0
 147 11 89 11 54 46 c 0
 18 82 18 140 54 176 c 0
 89 211 147 211 182 176 c 0
 218 140 218 82 182 46 c 0
EndSplineSet
EndChar

StartChar: trademark
Encoding: 168 8482 167
Width: 235
VWidth: 0
Flags: HMW
LayerCount: 2
Fore
SplineSet
83 112 m 0
 34 112 l 0
 24 112 23 126 34 126 c 0
 50 126 l 0
 50 208 l 0
 25 208 l 0
 24 181 l 0
 23 171 9 170 9 181 c 0
 9 217 l 0
 9 220 9 223 13 223 c 0
 104 223 l 0
 107 223 109 221 109 218 c 0
 109 182 l 0
 109 171 95 169 94 182 c 0
 92 208 l 0
 68 208 l 0
 68 126 l 0
 83 126 l 0
 94 126 94 112 83 112 c 0
124 112 m 0
 112 112 112 126 124 126 c 0
 124 208 l 0
 112 208 112 223 124 223 c 0
 144 223 l 0
 146 223 148 221 149 218 c 0
 169 159 l 0
 189 218 l 0
 190 221 191 223 193 223 c 0
 213 223 l 0
 225 223 225 208 213 208 c 0
 213 126 l 0
 217 126 l 0
 229 126 229 112 217 112 c 0
 193 112 l 0
 181 112 181 126 193 126 c 0
 193 195 l 0
 175 143 l 0
 173 135 162 134 160 143 c 0
 140 196 l 0
 140 126 l 0
 143 126 l 0
 155 126 155 112 143 112 c 0
 124 112 l 0
EndSplineSet
EndChar

StartChar: ordmasculine
Encoding: 169 186 168
Width: 235
VWidth: 0
Flags: HMW
LayerCount: 2
Fore
SplineSet
97 203 m 0
 83 189 83 157 96 144 c 0
 104 136 122 136 131 144 c 0
 145 157 145 189 131 203 c 0
 123 211 105 211 97 203 c 0
144 216 m 0
 167 193 167 154 144 131 c 0
 128 115 98 115 82 131 c 0
 61 153 61 194 82 216 c 0
 98 232 128 232 144 216 c 0
152 83 m 0
 75 83 l 0
 60 83 60 105 75 105 c 0
 152 105 l 0
 167 105 167 83 152 83 c 0
EndSplineSet
EndChar

StartChar: ordfeminine
Encoding: 170 170 169
Width: 235
VWidth: 0
Flags: HMW
LayerCount: 2
Fore
SplineSet
130 169 m 0
 105 171 86 171 86 154 c 0
 87 126 117 134 130 154 c 0
 130 169 l 0
129 180 m 0
 136 212 112 217 95 206 c 0
 82 198 77 210 84 217 c 0
 100 233 147 228 147 201 c 0
 147 139 l 0
 156 139 l 0
 166 139 166 122 156 122 c 0
 139 122 l 0
 126 122 130 131 130 140 c 0
 129 124 94 110 79 125 c 0
 64 140 64 161 79 176 c 0
 90 187 117 184 129 180 c 0
156 83 m 0
 79 83 l 0
 64 83 64 105 79 105 c 0
 156 105 l 0
 171 105 171 83 156 83 c 0
EndSplineSet
EndChar

StartChar: numbersign
Encoding: 171 35 170
Width: 235
VWidth: 0
Flags: HMW
LayerCount: 2
Fore
SplineSet
185 102 m 0
 170 102 l 0
 160 60 l 0
 185 60 l 0
 200 60 200 38 185 38 c 0
 155 38 l 0
 131 -62 l 0
 126 -81 105 -75 108 -62 c 0
 132 38 l 0
 84 38 l 0
 60 -62 l 0
 55 -81 34 -75 37 -62 c 0
 60 38 l 0
 51 38 l 0
 36 38 36 60 51 60 c 0
 65 60 l 0
 75 102 l 0
 51 102 l 0
 36 102 36 124 51 124 c 0
 81 124 l 0
 105 221 l 0
 110 240 131 234 128 221 c 0
 104 124 l 0
 152 124 l 0
 176 221 l 0
 181 240 202 234 199 221 c 0
 175 124 l 0
 185 124 l 0
 200 124 200 102 185 102 c 0
137 60 m 0
 147 102 l 0
 99 102 l 0
 89 60 l 0
 137 60 l 0
EndSplineSet
EndChar

StartChar: currency
Encoding: 172 164 171
Width: 235
VWidth: 0
Flags: HMW
LayerCount: 2
Fore
SplineSet
81 70 m 0
 101 50 135 50 155 70 c 0
 176 91 176 125 155 146 c 0
 135 166 101 166 81 146 c 0
 60 125 60 91 81 70 c 0
176 65 m 0
 199 39 l 0
 210 27 200 17 187 27 c 0
 160 49 l 0
 142 31 94 31 77 48 c 0
 50 26 l 0
 37 16 27 26 38 38 c 0
 62 64 l 0
 41 83 41 131 60 151 c 0
 38 177 l 0
 27 189 37 199 50 189 c 0
 76 167 l 0
 94 185 142 185 160 167 c 0
 187 189 l 0
 200 199 210 189 199 177 c 0
 176 151 l 0
 195 132 195 84 176 65 c 0
EndSplineSet
EndChar

StartChar: yen
Encoding: 173 165 172
Width: 235
VWidth: 0
Flags: HMW
LayerCount: 2
Fore
SplineSet
189 55 m 0
 132 55 l 0
 132 22 l 0
 174 22 l 0
 189 22 189 0 174 0 c 0
 66 0 l 0
 51 0 51 22 66 22 c 0
 108 22 l 0
 108 55 l 0
 51 55 l 0
 36 55 36 77 51 77 c 0
 108 77 l 0
 96 101 l 0
 51 101 l 0
 36 101 36 123 51 123 c 0
 85 123 l 0
 41 201 l 0
 29 201 l 0
 14 201 14 223 29 223 c 0
 94 223 l 0
 109 223 109 201 94 201 c 0
 73 201 l 0
 121 105 l 0
 178 201 l 0
 151 201 l 0
 136 201 136 223 151 223 c 0
 216 223 l 0
 231 223 231 201 216 201 c 0
 205 201 l 0
 157 123 l 0
 189 123 l 0
 204 123 204 101 189 101 c 0
 143 101 l 0
 132 77 l 0
 189 77 l 0
 204 77 204 55 189 55 c 0
EndSplineSet
EndChar

StartChar: cent
Encoding: 174 162 173
Width: 235
VWidth: 0
Flags: HMW
LayerCount: 2
Fore
SplineSet
207 37 m 0
 181 11 154 -5 137 -4 c 0
 137 -47 l 0
 137 -65 117 -65 117 -47 c 0
 117 -4 l 0
 98 -4 73 2 58 17 c 0
 19 56 19 114 58 153 c 0
 73 168 98 175 117 175 c 0
 117 204 l 0
 117 223 137 223 137 204 c 0
 137 175 l 0
 156 174 169 163 184 149 c 0
 184 165 l 0
 184 179 204 179 204 165 c 0
 204 107 l 0
 204 94 184 94 184 107 c 0
 184 110 173 129 168 134 c 0
 141 161 100 161 73 134 c 0
 49 110 49 60 73 36 c 0
 101 8 151 8 194 51 c 0
 203 60 217 47 207 37 c 0
EndSplineSet
EndChar

StartChar: dollar
Encoding: 175 36 174
Width: 235
VWidth: 0
Flags: HMW
LayerCount: 2
Fore
SplineSet
166 72 m 0
 166 91 148 96 129 102 c 0
 123 37 l 0
 148 34 166 52 166 72 c 0
122 13 m 0
 120 -13 l 0
 119 -40 l 0
 119 -55 97 -55 97 -40 c 0
 98 -31 99 -21 100 -12 c 0
 101 -3 101 6 102 15 c 0
 85 20 74 20 68 26 c 0
 68 15 44 9 44 31 c 0
 45 71 l 0
 45 86 65 86 65 71 c 0
 65 47 82 38 105 36 c 0
 111 110 l 0
 73 123 50 137 50 168 c 0
 50 205 82 223 120 223 c 0
 120 246 l 0
 120 261 142 261 142 246 c 0
 140 221 l 0
 150 223 160 217 167 212 c 0
 167 231 191 231 191 216 c 0
 188 178 l 0
 188 162 166 162 166 175 c 0
 166 192 150 202 139 201 c 0
 131 128 l 0
 184 114 192 94 192 65 c 0
 192 44 166 13 122 13 c 0
113 134 m 0
 118 203 l 0
 103 202 74 198 74 171 c 0
 74 156 89 142 113 134 c 0
EndSplineSet
EndChar

StartChar: less
Encoding: 187 60 186
Width: 235
VWidth: 0
Flags: HMW
LayerCount: 2
Fore
SplineSet
63 98 m 0
 49 110 49 114 63 126 c 0
 163 210 l 0
 175 220 188 203 177 193 c 0
 80 112 l 0
 177 31 l 0
 188 21 175 4 163 14 c 0
 63 98 l 0
EndSplineSet
EndChar

StartChar: greater
Encoding: 188 62 187
Width: 235
VWidth: 0
Flags: HMW
LayerCount: 2
Fore
SplineSet
171 126 m 0
 185 114 185 110 171 98 c 0
 71 14 l 0
 59 4 46 21 57 31 c 0
 154 112 l 0
 57 193 l 0
 46 203 59 220 71 210 c 0
 171 126 l 0
EndSplineSet
EndChar

StartChar: mu
Encoding: 189 181 188
Width: 235
VWidth: 0
Flags: HMW
LayerCount: 2
Fore
SplineSet
66 52 m 0
 66 48 68 34 74 28 c 0
 96 6 133 14 159 48 c 0
 159 158 l 0
 159 182 183 182 183 158 c 0
 183 36 l 0
 183 15 195 13 208 31 c 0
 213 38 230 29 224 16 c 0
 208 -16 158 -13 159 25 c 0
 133 -5 90 -17 64 6 c 0
 64 -29 l 0
 65 -39 76 -75 54 -76 c 0
 34 -75 41 -39 42 -29 c 0
 42 158 l 0
 42 182 66 182 66 158 c 0
 66 52 l 0
EndSplineSet
EndChar

StartChar: slash
Encoding: 190 47 189
Width: 235
VWidth: 0
Flags: HMW
LayerCount: 2
Fore
SplineSet
38 -58 m 0
 178 239 l 0
 184 251 205 244 197 229 c 0
 57 -68 l 0
 51 -80 30 -73 38 -58 c 0
EndSplineSet
EndChar

StartChar: backslash
Encoding: 191 92 190
Width: 235
VWidth: 0
Flags: HMW
LayerCount: 2
Fore
SplineSet
180 -68 m 0
 37 229 l 0
 31 242 50 252 56 239 c 0
 199 -58 l 0
 205 -71 186 -81 180 -68 c 0
EndSplineSet
EndChar

StartChar: AE
Encoding: 192 198 191
Width: 235
VWidth: 0
Flags: HMW
LayerCount: 2
Fore
SplineSet
211 187 m 0
 204 201 l 0
 158 201 l 0
 158 131 l 0
 181 131 l 0
 181 147 l 0
 181 162 201 162 201 147 c 0
 201 91 l 0
 201 76 181 76 181 91 c 0
 181 109 l 0
 158 109 l 0
 158 22 l 0
 207 22 l 0
 213 38 l 0
 217 52 228 50 228 34 c 0
 228 16 l 0
 228 0 224 0 214 0 c 0
 110 0 l 0
 95 0 95 22 110 22 c 0
 134 22 l 0
 134 69 l 0
 67 69 l 0
 48 22 l 0
 60 22 l 0
 75 22 75 0 60 0 c 0
 14 0 l 0
 -1 0 -1 22 14 22 c 0
 25 22 l 0
 100 201 l 0
 76 201 l 0
 61 201 61 223 76 223 c 0
 211 223 l 0
 221 223 228 223 228 207 c 0
 228 189 l 0
 228 176 217 173 211 187 c 0
112 180 m 0
 76 91 l 0
 134 91 l 0
 134 180 l 0
 134 203 121 204 112 180 c 0
EndSplineSet
EndChar

StartChar: OE
Encoding: 193 338 192
Width: 235
VWidth: 0
Flags: HMW
LayerCount: 2
Fore
SplineSet
225 34 m 0
 225 16 l 0
 225 0 220 0 210 0 c 0
 129 0 l 0
 100 -9 75 -9 47 19 c 0
 0 66 0 156 47 203 c 0
 75 231 100 231 129 223 c 0
 210 223 l 0
 220 223 225 223 225 207 c 0
 225 189 l 0
 225 176 216 173 210 187 c 0
 203 201 l 0
 155 201 l 0
 155 131 l 0
 178 131 l 0
 178 147 l 0
 178 162 198 162 198 147 c 0
 198 91 l 0
 198 76 178 76 178 91 c 0
 178 109 l 0
 155 109 l 0
 155 22 l 0
 203 22 l 0
 209 38 l 0
 213 52 225 50 225 34 c 0
131 183 m 0
 131 206 93 216 70 193 c 0
 27 150 27 72 70 29 c 0
 93 6 131 19 131 39 c 0
 131 183 l 0
EndSplineSet
EndChar

StartChar: Thorn
Encoding: 195 222 194
Width: 235
VWidth: 0
Flags: HMW
LayerCount: 2
Fore
SplineSet
21 223 m 0
 131 223 l 0
 146 223 146 201 131 201 c 0
 78 201 l 0
 78 179 l 0
 127 179 l 0
 229 179 229 59 127 59 c 0
 78 59 l 0
 78 22 l 0
 131 22 l 0
 146 22 146 0 131 0 c 0
 21 0 l 0
 6 0 6 22 21 22 c 0
 54 22 l 0
 54 201 l 0
 21 201 l 0
 6 201 6 223 21 223 c 0
129 159 m 0
 78 159 l 0
 78 79 l 0
 129 79 l 0
 198 79 198 159 129 159 c 0
EndSplineSet
EndChar

StartChar: Eng
Encoding: 196 330 195
Width: 235
VWidth: 0
Flags: HMW
LayerCount: 2
Fore
SplineSet
181 217 m 0
 209 193 212 167 212 119 c 0
 212 75 213 27 190 4 c 0
 172 -13 134 -9 122 2 c 0
 121 3 120 7 120 8 c 0
 120 10 121 16 122 18 c 0
 122 18 123 18 123 18 c 0
 132 27 155 2 175 21 c 0
 186 33 190 52 190 78 c 0
 190 106 193 158 183 178 c 0
 180 184 176 190 172 194 c 0
 144 221 111 207 79 175 c 0
 74 170 70 165 65 160 c 0
 65 22 l 0
 74 22 l 0
 80 22 85 22 87 19 c 0
 90 15 92 7 88 2 c 0
 86 0 82 0 76 0 c 0
 33 0 l 0
 27 0 23 0 21 2 c 0
 16 5 17 15 21 19 c 0
 24 21 27 22 34 22 c 0
 43 22 l 0
 43 201 l 0
 36 201 l 0
 28 201 24 201 21 204 c 0
 16 207 17 217 21 221 c 0
 23 223 27 223 32 223 c 0
 65 223 l 0
 65 188 l 0
 99 225 147 242 181 217 c 0
EndSplineSet
EndChar

StartChar: Hbar
Encoding: 197 294 196
Width: 235
VWidth: 0
Flags: HMW
LayerCount: 2
Fore
SplineSet
36 169 m 0
 26 169 26 180 36 180 c 0
 212 180 l 0
 221 180 221 169 212 169 c 0
 36 169 l 0
EndSplineSet
Refer: 71 72 N 1 0 0 1 0 0 0
EndChar

StartChar: Lslash
Encoding: 198 321 197
Width: 235
VWidth: 0
Flags: HMW
LayerCount: 2
Fore
SplineSet
31 69 m 0
 14 59 3 79 21 89 c 0
 118 147 l 0
 133 156 143 137 129 128 c 0
 31 69 l 0
EndSplineSet
Refer: 75 76 N 1 0 0 1 0 0 0
EndChar

StartChar: Oslash
Encoding: 199 216 198
Width: 235
VWidth: 0
Flags: HMW
LayerCount: 2
Fore
SplineSet
65 -12 m 0
 57 -26 40 -18 48 -3 c 0
 57 15 l 0
 6 53 6 156 49 199 c 0
 87 237 133 235 163 218 c 0
 175 241 l 0
 183 255 200 247 192 232 c 0
 180 208 l 0
 230 170 230 65 187 22 c 0
 149 -16 103 -12 74 5 c 0
 65 -12 l 0
153 199 m 0
 135 211 98 215 72 189 c 0
 30 147 41 67 68 36 c 0
 153 199 l 0
83 23 m 0
 103 10 140 6 166 32 c 0
 208 74 197 154 169 186 c 0
 83 23 l 0
EndSplineSet
EndChar

StartChar: cedilla
Encoding: 210 184 209
Width: 235
VWidth: 0
Flags: HMW
LayerCount: 2
Fore
SplineSet
162 -45 m 0
 162 -77 123 -78 102 -72 c 0
 123 -78 162 -77 162 -45 c 0
103 -50 m 0
 113 -48 131 -62 135 -51 c 0
 131 -62 113 -48 103 -50 c 0
103 -50 m 0
 87 -53 85 -67 102 -72 c 0
 123 -78 162 -77 162 -45 c 0
 162 -33 157 -23 140 -14 c 0
 157 -23 162 -33 162 -45 c 0
 162 -33 157 -23 140 -14 c 0
 146 0 l 0
 120 0 l 0
 113 -19 l 0
 115 -38 144 -27 135 -51 c 0
 144 -27 115 -38 113 -19 c 0
 115 -38 144 -27 135 -51 c 0
 131 -62 113 -48 103 -50 c 0
103 -50 m 0
 87 -53 85 -67 102 -72 c 0
 85 -67 87 -53 103 -50 c 0
EndSplineSet
EndChar

StartChar: afii00208
Encoding: 217 8213 214
Width: 235
VWidth: 0
Flags: HMW
LayerCount: 2
Fore
SplineSet
143 8 m 0
 126 25 126 57 143 74 c 0
 163 94 193 94 213 74 c 0
 230 57 230 25 213 8 c 0
 193 -12 163 -12 143 8 c 0
162 17 m 0
 172 7 184 7 194 17 c 0
 206 29 206 53 194 65 c 0
 184 75 172 75 162 65 c 0
 150 53 150 29 162 17 c 0
EndSplineSet
EndChar

StartChar: Euro
Encoding: 219 8364 216
Width: 235
VWidth: 0
Flags: HMW
LayerCount: 2
Fore
SplineSet
182 36 m 0
 198 51 206 52 210 48 c 0
 214 43 209 33 200 25 c 0
 196 21 190 16 185 12 c 0
 146 -17 87 -9 54 24 c 0
 36 42 28 60 24 93 c 0
 9 93 l 0
 6 93 3 94 2 95 c 0
 0 97 0 101 2 103 c 0
 3 104 6 105 9 105 c 0
 24 105 l 0
 24 122 l 0
 9 122 l 0
 5 122 3 123 2 124 c 0
 0 126 0 130 2 131 c 0
 3 133 5 134 9 134 c 0
 25 134 l 0
 27 162 37 184 54 201 c 0
 90 237 150 239 189 202 c 0
 189 213 l 0
 189 217 190 220 192 222 c 0
 194 225 206 224 208 222 c 0
 210 220 211 217 211 213 c 0
 211 168 l 0
 211 164 210 161 208 159 c 0
 206 157 193 155 190 161 c 0
 188 167 186 177 179 183 c 0
 150 212 100 215 70 185 c 0
 56 171 50 156 47 134 c 0
 153 134 l 0
 156 134 158 133 159 132 c 0
 161 130 161 126 159 124 c 0
 158 123 156 122 153 122 c 0
 46 122 l 0
 46 105 l 0
 147 105 l 0
 150 105 152 104 154 103 c 0
 156 101 156 97 154 95 c 0
 152 94 150 93 147 93 c 0
 47 93 l 0
 49 72 57 52 70 38 c 0
 102 7 154 7 182 36 c 0
EndSplineSet
EndChar

StartChar: exclamdown
Encoding: 220 161 217
Width: 235
VWidth: 0
Flags: HMW
LayerCount: 2
Fore
SplineSet
143 168 m 0
 153 158 153 147 143 137 c 0
 133 127 107 127 97 137 c 0
 87 147 87 158 97 168 c 0
 107 178 133 178 143 168 c 0
107 78 m 0
 107 98 133 98 133 78 c 0
 136 -49 l 0
 136 -68 104 -68 104 -49 c 0
 107 78 l 0
EndSplineSet
EndChar

StartChar: dotlessj
Encoding: 221 567 218
Width: 235
VWidth: 0
Flags: HMW
LayerCount: 2
Fore
SplineSet
145 -13 m 0
 145 149 l 0
 56 149 l 0
 41 149 41 171 56 171 c 0
 155 171 l 0
 163 171 169 165 169 157 c 0
 169 -13 l 0
 169 -33 164 -48 146 -65 c 0
 134 -78 95 -79 56 -73 c 0
 41 -73 41 -51 56 -51 c 0
 95 -54 121 -55 136 -40 c 0
 145 -31 145 -20 145 -13 c 0
EndSplineSet
EndChar

StartChar: kgreenlandic
Encoding: 222 312 219
Width: 235
VWidth: 0
Flags: HMW
LayerCount: 2
Fore
SplineSet
133 149 m 0
 118 149 118 171 133 171 c 0
 195 171 l 0
 210 171 210 149 195 149 c 0
 184 149 l 0
 108 101 l 0
 192 22 l 0
 206 22 l 0
 221 22 221 0 206 0 c 0
 148 0 l 0
 133 0 133 22 148 22 c 0
 159 22 l 0
 92 89 l 0
 78 79 l 0
 78 14 l 0
 78 5 73 0 64 0 c 0
 31 0 l 0
 16 0 16 22 31 22 c 0
 54 22 l 0
 54 149 l 0
 31 149 l 0
 16 149 16 171 31 171 c 0
 64 171 l 0
 73 171 78 166 78 157 c 0
 78 101 l 0
 149 149 l 0
 133 149 l 0
EndSplineSet
EndChar

StartChar: germandbls
Encoding: 223 223 220
Width: 235
VWidth: 0
Flags: HMW
LayerCount: 2
Fore
SplineSet
40 0 m 0
 25 0 25 22 40 22 c 0
 60 22 l 0
 60 176 l 0
 60 190 63 208 83 228 c 0
 106 251 150 251 173 228 c 0
 204 197 180 144 161 141 c 0
 169 139 186 135 197 124 c 0
 225 96 225 51 197 23 c 0
 180 6 160 0 121 0 c 0
 103 0 103 22 121 22 c 0
 128 23 162 20 181 39 c 0
 198 56 197 90 181 106 c 0
 159 128 135 124 120 121 c 0
 104 118 104 143 120 143 c 0
 164 143 175 193 153 215 c 0
 131 237 84 214 84 182 c 0
 84 14 l 0
 84 6 78 0 70 0 c 0
 40 0 l 0
EndSplineSet
EndChar

StartChar: ae
Encoding: 224 230 221
Width: 235
VWidth: 0
Flags: HMW
LayerCount: 2
Fore
SplineSet
163 157 m 0
 128 157 120 105 128 105 c 0
 189 105 l 0
 210 105 206 157 163 157 c 0
28 86 m 0
 52 110 83 105 101 105 c 0
 101 129 l 0
 101 149 63 162 51 150 c 0
 35 134 18 158 35 167 c 0
 63 183 102 177 116 150 c 0
 130 178 177 188 207 158 c 0
 228 137 226 83 197 83 c 0
 142 83 l 0
 127 83 123 86 123 67 c 0
 135 10 172 3 205 39 c 0
 214 49 226 37 218 26 c 0
 189 -12 147 -22 115 27 c 0
 92 -10 49 -16 25 8 c 0
 5 28 5 63 28 86 c 0
101 83 m 0
 84 83 60 85 45 70 c 0
 34 59 34 38 45 27 c 0
 63 9 95 17 101 51 c 0
 101 83 l 0
EndSplineSet
EndChar

StartChar: oe
Encoding: 225 339 222
Width: 235
VWidth: 0
Flags: HMW
LayerCount: 2
Fore
SplineSet
222 26 m 0
 193 -12 151 -22 118 30 c 0
 101 0 68 -24 33 11 c 0
 -3 47 -3 123 33 159 c 0
 65 191 98 173 116 143 c 0
 134 178 181 188 211 158 c 0
 232 137 230 83 201 83 c 0
 146 83 l 0
 131 83 127 85 127 66 c 0
 139 9 176 3 209 39 c 0
 218 49 230 37 222 26 c 0
132 105 m 0
 193 105 l 0
 214 105 210 157 167 157 c 0
 132 157 124 105 132 105 c 0
88 146 m 0
 75 159 63 159 50 146 c 0
 25 121 25 51 50 26 c 0
 63 13 75 13 88 26 c 0
 113 51 113 121 88 146 c 0
EndSplineSet
EndChar

StartChar: thorn
Encoding: 227 254 224
Width: 235
VWidth: 0
Flags: HMW
LayerCount: 2
Fore
SplineSet
26 -74 m 0
 11 -74 11 -52 26 -52 c 0
 50 -52 l 0
 50 223 l 0
 26 223 l 0
 11 223 11 245 26 245 c 0
 58 245 l 0
 67 245 72 240 72 231 c 0
 72 137 l 0
 99 187 157 187 196 148 c 0
 226 118 226 53 192 19 c 0
 157 -16 102 -16 76 26 c 0
 76 -52 l 0
 115 -52 l 0
 130 -52 130 -74 115 -74 c 0
 26 -74 l 0
172 33 m 0
 198 59 198 111 172 137 c 0
 150 159 116 159 92 135 c 0
 68 111 68 57 92 33 c 0
 115 10 149 10 172 33 c 0
EndSplineSet
EndChar

StartChar: eng
Encoding: 228 331 225
Width: 235
VWidth: 0
Flags: HMW
LayerCount: 2
Fore
SplineSet
195 -11 m 0
 195 -52 171 -73 126 -73 c 0
 99 -73 l 0
 95 -73 91 -72 90 -70 c 0
 87 -68 88 -56 90 -54 c 0
 92 -52 95 -51 99 -51 c 0
 126 -51 l 0
 154 -51 171 -39 171 -11 c 0
 171 114 l 0
 171 126 168 135 161 142 c 0
 139 163 103 154 78 121 c 0
 78 22 l 0
 94 22 l 0
 98 22 101 21 102 19 c 0
 105 17 105 5 102 2 c 0
 100 0 98 0 94 0 c 0
 35 0 l 0
 31 0 28 0 26 2 c 0
 24 5 24 17 26 19 c 0
 28 21 31 22 35 22 c 0
 54 22 l 0
 54 149 l 0
 36 149 l 0
 31 149 29 150 27 152 c 0
 24 154 24 165 27 168 c 0
 29 170 31 171 36 171 c 0
 78 171 l 0
 78 145 l 0
 101 172 149 191 180 160 c 0
 190 150 195 136 195 122 c 0
 195 -11 l 0
EndSplineSet
EndChar

StartChar: oslash
Encoding: 231 248 228
Width: 235
VWidth: 0
Flags: HMW
LayerCount: 2
Fore
SplineSet
51 153 m 0
 78 180 127 178 150 172 c 0
 156 183 l 0
 162 196 180 185 174 175 c 0
 170 165 l 0
 220 137 234 64 187 17 c 0
 160 -10 112 -8 89 -2 c 0
 83 -13 l 0
 77 -26 59 -15 65 -5 c 0
 69 5 l 0
 19 33 4 106 51 153 c 0
140 151 m 0
 124 159 94 161 68 135 c 0
 33 100 47 45 80 26 c 0
 140 151 l 0
159 143 m 0
 99 18 l 0
 115 10 144 8 170 34 c 0
 205 69 192 124 159 143 c 0
EndSplineSet
EndChar

StartChar: ccedilla
Encoding: 234 231 231
Width: 235
VWidth: 0
Flags: HMW
LayerCount: 2
Fore
SplineSet
73 36 m 0
 101 8 152 8 195 51 c 0
 204 60 217 48 207 38 c 0
 188 19 160 0 129 -6 c 0
 125 -13 l 0
 142 -22 147 -32 147 -44 c 0
 147 -76 108 -77 87 -71 c 0
 70 -66 72 -52 88 -49 c 0
 98 -47 116 -61 120 -50 c 0
 129 -26 100 -37 98 -18 c 0
 103 -6 l 0
 89 -3 73 2 58 17 c 0
 19 56 19 114 58 153 c 0
 89 184 159 184 184 149 c 0
 184 165 l 0
 184 179 204 179 204 165 c 0
 204 107 l 0
 204 94 184 94 184 107 c 0
 184 110 173 129 168 134 c 0
 141 161 100 161 73 134 c 0
 49 110 49 60 73 36 c 0
EndSplineSet
EndChar

StartChar: ogonek
Encoding: 242 731 239
Width: 235
VWidth: 0
Flags: HMW
LayerCount: 2
Fore
SplineSet
146 0 m 0
 130 -19 120 -30 120 -42 c 0
 128 -60 149 -60 170 -43 c 0
 181 -34 195 -51 176 -65 c 0
 145 -87 102 -65 99 -49 c 0
 95 -29 110 -12 121 0 c 0
 146 0 l 0
EndSplineSet
EndChar

StartChar: florin
Encoding: 251 402 245
Width: 235
VWidth: 0
Flags: HMW
LayerCount: 2
Fore
SplineSet
16 -56 m 0
 4 -48 12 -18 29 -32 c 0
 60 -54 89 -46 99 -28 c 0
 103 -21 105 -11 105 -2 c 0
 105 117 l 0
 69 117 l 0
 54 117 54 139 69 139 c 0
 105 139 l 0
 105 195 l 0
 105 203 106 219 114 226 c 0
 149 262 181 249 208 244 c 0
 230 241 212 213 194 217 c 0
 176 221 158 234 138 215 c 0
 132 208 129 196 129 192 c 0
 129 139 l 0
 180 139 l 0
 195 139 195 117 180 117 c 0
 129 117 l 0
 129 -2 l 0
 129 -21 124 -33 115 -44 c 0
 83 -82 44 -74 16 -56 c 0
EndSplineSet
EndChar

StartChar: questiondown
Encoding: 252 191 246
Width: 235
VWidth: 0
Flags: HMW
LayerCount: 2
Fore
SplineSet
97 168 m 0
 107 178 133 178 143 168 c 0
 153 158 153 147 143 137 c 0
 133 127 107 127 97 137 c 0
 87 147 87 158 97 168 c 0
51 46 m 0
 69 64 93 72 108 76 c 0
 108 92 l 0
 108 108 132 108 132 92 c 0
 132 65 l 0
 132 59 125 55 119 55 c 0
 104 54 90 50 76 36 c 0
 56 16 56 -6 75 -25 c 0
 92 -42 136 -42 160 -20 c 0
 160 -11 l 0
 160 5 184 5 184 -11 c 0
 184 -38 l 0
 170 -61 85 -70 51 -36 c 0
 29 -14 29 24 51 46 c 0
EndSplineSet
EndChar

StartChar: dotlessi
Encoding: 253 305 247
Width: 235
VWidth: 0
Flags: HMW
LayerCount: 2
Fore
SplineSet
188 0 m 0
 51 0 l 0
 36 0 36 22 51 22 c 0
 106 22 l 0
 106 149 l 0
 66 149 l 0
 51 149 51 171 66 171 c 0
 116 171 l 0
 124 171 130 165 130 157 c 0
 130 22 l 0
 188 22 l 0
 203 22 203 0 188 0 c 0
EndSplineSet
EndChar

StartChar: fi
Encoding: 254 64257 248
Width: 235
VWidth: 0
Flags: HMW
LayerCount: 2
Fore
SplineSet
83 171 m 0
 177 171 l 0
 183 171 188 166 188 160 c 0
 188 22 l 0
 217 22 l 0
 232 22 232 0 217 0 c 0
 164 0 l 0
 164 149 l 0
 83 149 l 0
 83 22 l 0
 119 22 l 0
 134 22 134 0 119 0 c 0
 23 0 l 0
 8 0 8 22 23 22 c 0
 59 22 l 0
 59 149 l 0
 23 149 l 0
 8 149 8 171 23 171 c 0
 59 171 l 0
 59 188 55 214 74 233 c 0
 98 257 177 253 195 239 c 0
 202 234 181 209 172 217 c 0
 164 224 108 231 92 215 c 0
 82 205 83 183 83 171 c 0
EndSplineSet
EndChar

StartChar: fl
Encoding: 255 64258 249
Width: 235
VWidth: 0
Flags: HMW
LayerCount: 2
Fore
SplineSet
119 22 m 0
 134 22 134 0 119 0 c 0
 23 0 l 0
 8 0 8 22 23 22 c 0
 59 22 l 0
 59 149 l 0
 23 149 l 0
 8 149 8 171 23 171 c 0
 59 171 l 0
 59 188 55 214 74 233 c 0
 97 256 141 251 166 246 c 0
 179 245 188 242 188 236 c 0
 188 22 l 0
 217 22 l 0
 232 22 232 0 217 0 c 0
 164 0 l 0
 164 149 l 0
 83 149 l 0
 83 22 l 0
 119 22 l 0
83 171 m 0
 164 171 l 0
 164 214 l 0
 139 222 111 234 92 215 c 0
 82 205 83 183 83 171 c 0
EndSplineSet
EndChar

